<svg xmlns="http://www.w3.org/2000/svg" width="632.131" height="242.451" viewBox="0 0 632.131 242.451">
  <path id="Union_2" data-name="Union 2" d="M-13492.687,236.771a5.485,5.485,0,0,1,5.315-5.683,5.488,5.488,0,0,1,5.319,5.683,5.487,5.487,0,0,1-5.319,5.68A5.484,5.484,0,0,1-13492.687,236.771Zm-55.906.379c0-12.878,16.785-12.5,16.785-25.879,0-4.922-3.663-6.437-6.738-6.437-6.026,0-10.4,4.293-14.3,4.293-2.481,0-4.254-.885-4.254-2.9,0-7.7,21.035-.127,21.035-12.75,0-5.3-8.861-6.943-8.861-10.73,0-4.8,16.78.506,16.78-7.952,0-5.3-8.153-6.186-8.153-13.253,0-1.769.945-3.408,2.718-3.408,7.92,0,3.546,16.788,15.482,16.788,4.491,0,6.854-3.535,6.854-8.964,0-6.437-2.363-8.582-2.363-15.9,0-2.9,1.656-6.058,5.081-6.058,3.192,0,5.319,3.157,5.319,6.437,0,8.458-3.546,8.709-3.546,16.282,0,11.36,4.728,14.138,13.476,14.138,4.962,0,7.446-10.1,12.645-10.1,4.137,0,5.793,2.774,5.793,5.68,0,6.943-17.612,2.145-17.612,18.048,0,18.936,24.584,7.955,24.584,20.072,0,2.651-1.3,4.923-4.137,4.923-8.628,0-7.562-9.721-25.409-9.721-6.5,0-7.683,6.186-7.683,11.363,0,6.94,4.49,8.076,4.49,11.862,0,3.157-2.363,4.671-5.081,4.671-7.683,0,.707-24.361-14.421-24.361-15.482,0-9.456,29.16-23.519,29.16C-13546.583,242.451-13548.594,240.558-13548.594,237.15Zm-186.491-11.338c-2.24-4.8-.159-10.963.641-16.08a5.846,5.846,0,0,1,.718-1.84c.241-1.2.241-2.721,1.041-3.44a6,6,0,0,1,.48-2.321,62.5,62.5,0,0,1,3.358-9.2c.082-.4-.077-.478-.077-.718,1.6-3.362,2.877-7.2,4.876-10.319,0-.241-.078-.641.082-.722a9.65,9.65,0,0,0,2.721.8,6.422,6.422,0,0,1,.719,2.081c-.078.318-.56.959-.719,1.518-.081.241.078.563,0,.881s-.481.722-.481,1.2c-.077.322.082.559.082.8-.082,1.2-.8,2.321-.959,3.521,2.477-1.522,4.8-4.24,8.315-4.562a4.533,4.533,0,0,1,2.163.563,9.233,9.233,0,0,1,2.321.478c1.277.963,1.2,3.84.478,5.521a31.191,31.191,0,0,1-3.681,5.92,11.024,11.024,0,0,0-1.04,1.44,10.627,10.627,0,0,1-2.8,2.881,2.43,2.43,0,0,1-.4.959c-.24.159-.56.318-.959.559a29.034,29.034,0,0,1-3.521,3.521c-.718-.081-.8.318-1.04.481a4.683,4.683,0,0,1-3.84-1.2c-2.081,3.677-3.04,8.4-4.239,13.437-.081,1.522-.481,3.921-.4,5.761C-13732.845,227.411-13733.167,225.812-13735.085,225.812Zm20.319-35.523c-1.281,1.2-2.24,2.881-4,3.84-.881,1.922-2.721,2.881-3.521,4.8-.318,0-.318.241-.481.318-.878,2.321-2.718,3.84-3.28,6.561,2.64-.881,4.08-2.962,6.242-4.4,2-2.4,4.239-4.643,5.839-7.442.082-1.918,1.359-2.64,1.44-4.8C-13713.406,189.411-13713.807,190.048-13714.766,190.289Zm-51.362,22.482c-.237-.241-.8-.4-1.2-.722-.159-.078-.159-.478-.4-.559-1.036-1.04-3.358-1.359-3.839-2.64-.16-.481-.078-1.6-.237-2.4-.241-.722-1.041-2-.082-2.962-.562-2,.159-3.84.719-5.521.4-1.359,1.04-3.118,1.681-5.117,1.2-2.4,3.121-4.24,3.762-6.32,1.2-.081,1.041-1.681,2.077-1.762,0-.4-.236-.559.163-1.118,1.2.881,2.8.8,4.8.8.4-.718.159-1.359.318-2a1.287,1.287,0,0,1,1.681-.322,8.253,8.253,0,0,1,1.359,4.08,19.615,19.615,0,0,1,.081,11.759,6.209,6.209,0,0,1,.159,2.24,3.258,3.258,0,0,1-.559.881c-.722,3.84-2.959,6.32-4.08,9.76-.723.722-1.522,1.359-1.281,2.4a4.918,4.918,0,0,0-1.359,1.2,4.57,4.57,0,0,1-1.105.157C-13764.786,214.605-13765.222,213.74-13766.128,212.771Zm2.162-7.361c2.559-3.2,5.68-10.56,5.2-16.08C-13761.726,192.211-13765.328,200.53-13763.966,205.41Zm164.321,6.961a21.3,21.3,0,0,0-2.562-1.922,12.034,12.034,0,0,1-2-3.28c-.24-1.84-1.04-4.48-.24-6.08,0-.241-.4-.159-.318-.481.8-7.92,4.558-14.477,8.879-19.92a1.382,1.382,0,0,0,1.44-.478,7.72,7.72,0,0,0,3.762,2.559c.8.081,1.437,0,2,.081,1.519.718,2.881,3.2,2.24,5.92a28.223,28.223,0,0,1-1.681,3.6,27.811,27.811,0,0,1-3.44,5.2,14.733,14.733,0,0,0-2.48,1.922,2.191,2.191,0,0,1-.8.081c-.8,1.118-2.24,1.359-3.361,2.077a11.036,11.036,0,0,0-.56,3.762,7.1,7.1,0,0,0,.481,4.24c.159.481.718,1.359,1.118,1.44,1.04.159,2.881-1.359,3.762-2a23.65,23.65,0,0,0,6.4-7.361c.722.4.24,1.118.162,1.681a13.523,13.523,0,0,1-1.362,3.358c.641,1.04-.559,1.681-.877,2.4-.082.4,0,.881-.082,1.2a10.952,10.952,0,0,1-2.48,2.081,20.746,20.746,0,0,1-2.159,1.681,5.747,5.747,0,0,1-1.543.224C-13597.277,214.354-13598.488,213.208-13599.645,212.371Zm6-25.281c0,.318-.16.4-.082.718-1.518,1.2-1.44,3.521-2.64,4.961.163,1.922-2,2.321-.478,3.84.8-1.518,2.477-2.318,2.8-4.639.56-.159,1.2-1.04,1.04-1.522.56-.078.241-.637.8-.718-.159-.159-.24-.241-.24-.4a3.768,3.768,0,0,0,1.122-2.4,1.486,1.486,0,0,1-1.072.078,4.192,4.192,0,0,0-.6-.058A1.406,1.406,0,0,0-13593.646,187.09Zm-107.68,25.281a21.071,21.071,0,0,0-2.562-1.922,12.034,12.034,0,0,1-2-3.28c-.24-1.84-1.04-4.48-.24-6.08,0-.241-.4-.159-.318-.481.8-7.92,4.562-14.477,8.879-19.92a1.377,1.377,0,0,0,1.44-.478,7.738,7.738,0,0,0,3.762,2.559c.8.081,1.439,0,2,.081,1.519.718,2.881,3.2,2.24,5.92a28.223,28.223,0,0,1-1.681,3.6,27.811,27.811,0,0,1-3.44,5.2,14.733,14.733,0,0,0-2.48,1.922,2.191,2.191,0,0,1-.8.081c-.8,1.118-2.24,1.359-3.358,2.077a10.963,10.963,0,0,0-.562,3.762,7.118,7.118,0,0,0,.481,4.24c.159.481.718,1.359,1.122,1.44,1.036.159,2.877-1.359,3.758-2a23.7,23.7,0,0,0,6.4-7.361c.719.4.237,1.118.159,1.681a13.523,13.523,0,0,1-1.362,3.358c.641,1.04-.559,1.681-.877,2.4-.082.4,0,.881-.082,1.2a10.867,10.867,0,0,1-2.48,2.081,20.439,20.439,0,0,1-2.159,1.681,5.747,5.747,0,0,1-1.543.224C-13698.957,214.354-13700.166,213.208-13701.325,212.371Zm6-25.281c0,.318-.16.4-.078.718-1.521,1.2-1.44,3.521-2.641,4.961.16,1.922-2,2.321-.48,3.84.8-1.518,2.48-2.318,2.8-4.639.56-.159,1.2-1.04,1.04-1.522.56-.078.241-.637.8-.718-.159-.159-.24-.241-.24-.4a3.768,3.768,0,0,0,1.122-2.4,1.485,1.485,0,0,1-1.072.078,4.192,4.192,0,0,0-.6-.058A1.406,1.406,0,0,0-13695.326,187.09Zm36.8,25.041c-1.841-1.522-2-4.48-1.6-7.279,0-.322.159-.322.481-.322-.322-2.559,3.518-12.241,4.317-14.718a7.125,7.125,0,0,0-2.8-.481c-1.118-1.6-3.68-2.321-4.32-4,2.962.8,6.642-.563,9.682-.641,1.281-.959,1.281-2.481,2.481-3.362-.082-.4.236-.478.159-.8a99.657,99.657,0,0,1,9.359-11.519c.241-.241-.081-.481.241-.641.8-.4,1.277-1.281,2.158-1.759a15.171,15.171,0,0,1-1.44,7.039c-1.521,2.481-2.8,5.439-4.479,7.842-.082,1.118-1.277,2.559-1.918,3.677,1.44,1.04,3.917,1.04,4.876,2.721-.637.641-1.6.641-2.958.559-1.277.563-3.28.4-4.317,1.122-2.244,5.121-8,17.28-7.2,24.319C-13656.765,213.412-13657.168,212.208-13658.526,212.131Zm16.239-3.521c-.078-.241.082-.318.159-.559-.637-5.68,4-18.08,5.762-22.319.4-.163.481-.563.881-.722a4.458,4.458,0,0,0-.081-.559c.4-.159.559-.641.881-.8-.081-.641.478-1.122.881-1.6,2.077.641,4.88.959,5.04,3.118.077,1.762-1.363,2.721-1.6,4.321a10.886,10.886,0,0,1-1.041,3.84c0,.241-.24.722.078.722-1.437,2.881-3.84,15.04-4.64,17.921a2,2,0,0,1,.082,1.2c-.16.4-.8.241-1.122.559C-13638.925,212.29-13641.406,211.331-13642.287,208.609Zm15.362-.4c.159-2.081-.159-3.758.159-5.68a12.625,12.625,0,0,1,.8-1.44c.24-1.44.24-3.04.641-4.558.641-2.721,1.759-5.2,2-7.92.241-1.681,1.2-3.362,1.359-5.043.081-.478-.318-.641-.318-1.118,4.562,1.359,3.521,8.32,2.88,12.878.318-.159,2.24-.237,1.682-1.437,1.518-.481,1.036-2.881,2.636-3.28.322-.163-.318-.081-.159-.641,2.081-3.44,4-7.12,6.243-10.56a1.608,1.608,0,0,1,0-.881c1.118-.641,1.759-4.321,3.439-4.48,1.277-.078,1.518,1.359,1.518,2.881-1.118,2.159-1.6,5.2-2.718,7.439a13.181,13.181,0,0,1-1.2,4.243c0,.237-.478.237-.559.4-.4.559-.641,1.518-1.041,2.24-.236.559-.236,1.437-.478,2.077-.322,1.04-1.281,1.762-1.763,2.8-.159.4-.077.959-.236,1.437-.963,1.84-2.162,3.843-3.044,5.443a3.575,3.575,0,0,1-1.118,2.958c-.959,2.881-2.317,5.439-4.64,7.039C-13623.485,211.971-13623.885,208.769-13626.925,208.21Zm-181.948,4.37a1.538,1.538,0,0,0-1.652-.209c-.56-.4-1.2-.563-1.44-1.2-.959.078-1.519-.8-2.48-.8a1.461,1.461,0,0,0-.641.081,1.517,1.517,0,0,1-.638.081c-.64-.081-.881-.722-1.439-.8-.241-.241.077-.081.077-.322a9.686,9.686,0,0,1-2.64-5.839,10.537,10.537,0,0,0,0-1.6c0-.159-.159-.241-.24-.322-.4-1.6-.159-5.758.081-7.838a56.7,56.7,0,0,1,1.2-7.361,26.673,26.673,0,0,1,1.759-7.439c.241-2.881,1.922-5.6,2.322-8.32.48-.241.24-1.04.8-1.2-.082-.4.24-1.122.159-1.6a31.079,31.079,0,0,1,1.681-3.2c-1.281-.718-2.959-.641-4.558-1.04-1.122-.237-3.04-.641-4.4-.878-.641-.163-1.281-.081-1.841-.241-1.118-.159-2-.881-3.04-1.04a2.5,2.5,0,0,0-1.6-.722c-.159-.8-1.358-1.037-1.439-1.677,1.759-.159,3.521-.4,5.279-.559,5.2-.481,10.642.478,16,.478,1.681,0,3.362-.241,5.043-.241,1.759,0,3.518.241,5.28.322a26.045,26.045,0,0,0,4.133-.191,27.079,27.079,0,0,1,3.628-.209c.4.8,1.6,1.518,1.437,2.318.081.163.4.163.481.322.24.959-.319,1.44-.56,2.24a22.832,22.832,0,0,1-6.8,1.118,15.245,15.245,0,0,1-3.521.641,6.445,6.445,0,0,1-1.133.018c-.7-.035-1.292-.071-1.667.464-.078.8.481,1.359.481,2.159,0,.481-.4.881-.641,1.44-.159.481-.078,1.04-.24,1.359a22.613,22.613,0,0,0-1.277,2.4c-.082.4,0,.8-.082,1.2a31.256,31.256,0,0,1-1.358,5.039,62.581,62.581,0,0,1-2,8.879c-.159.481,0,1.04-.159,1.522-.078.159-.319.4-.4.559-.078.318.081.718,0,1.118,0,.241-.24.481-.318.8a26.236,26.236,0,0,0-.322,2.64c-.237,1.281-.641,2.562-.8,3.762-.077.718,0,1.518-.077,2.321a12.572,12.572,0,0,0-.4,2.318c0,.881.318,1.759.318,2.64-.078,2.321.959,4.562.959,6.961a1.215,1.215,0,0,1-.252.027A2.166,2.166,0,0,1-13808.873,212.58Zm130.108-1.09a20,20,0,0,1-1.759-2c-.4-.4-.963-.481-1.363-.8-3.839-2.8-4.32-10.8-2.321-14.481a28.44,28.44,0,0,1,2.644-5.439c.959-1.6,1.841-3.2,2.641-4.48.637-.722,1.677-1.2,1.677-2.24,1.041-.322,1.041-1.44,1.922-1.922,2.958,1.6,7.12,1.6,9.52,3.68.8,1.84.559,4.961-.241,7.042-.559,1.6-1.439,3.758-2.64,4.717-.24.081-.481.163-.8.241-.559.4-.881,1.122-1.84,1.281a1.865,1.865,0,0,0-1.444-.145,4.6,4.6,0,0,1-1.037.064,42.11,42.11,0,0,1-.4-7.2c-.878.559-1.359,2.559-2.081,3.6.163,1.918-.959,3.04-1.277,4.639-.081.4.081.881,0,1.359a23.914,23.914,0,0,0,.478,8.32c2.8-1.2,4.08-3.917,5.361-6.717.959,1.278.4,3.277,1.122,4.717,0,2-.8,3.04-.881,5.28a3.313,3.313,0,0,1-3.252,1.923A6.674,6.674,0,0,1-13678.765,211.49Zm-155.684-2.64a15.5,15.5,0,0,1-4.317-3.6c-3.6-2.962-3.439-8.8-5.279-14.481a.939.939,0,0,0-.8.881c-.252.248-.63.184-.991.124a1.849,1.849,0,0,0-.608-.046c-2.481.4-1.44-.241-2.562-.478-.478-.081-.24.478-.559.559-.259-.074.088.12.484.315.218.106.45.212.609.275-.476.139-.634.2-.935.129a4.27,4.27,0,0,0,.159,1.122c-.56.959-.159,2.318-.4,3.28-.077.4-.318.559-.4.878-.078.963.081,2.24,0,3.2,0,.718-.241,1.437-.241,2.077.082.881.563,1.6,0,2.4-.077.4.481.241.322.641-.719,2.081.481,4.239.318,6.4-.959-.241-1.2-1.2-2.477-1.122-.241.081.159.241,0,.4-.481-.159-.481-.8-.882-1.118-.159.081-.4.081-.481.159,0,.559.882.322.8.881-.559-.159-.877-.641-1.277-.959-1.681.237-2.08-.641-2.962-1.122-.159-1.118-1.677-1.2-1.84-2.559-.078-.163-.4-.081-.4-.241-.077-.322.159-.241.159-.4-2.239-4.08-2.317-10.641-2.477-16.08.478-3.762.237-6.879.641-10.319a61.108,61.108,0,0,1,2.559-12.322c.077-.4.481-.718.559-1.118.241-.559.241-1.281.481-1.762.159-.4.56-.718.719-1.037.081-.241,0-.481.081-.722.4-.718,1.04-1.44,1.44-2.159.24-.563.318-1.2.878-1.6-1.278-.563-3.358-.322-4.8-.8-1.2.478-2.081-.722-3.2-.881-.641-1.04-2.321-1.04-3.04-2.081,3.2-.241,5.921-.881,8.639-.8.881.081,2.48.4,3.521.481,4.8.478,9.279,2.559,13.2,4.88a4.8,4.8,0,0,1,2.158,1.2c.963.4,1.363,1.44,2.162,2.159a5.569,5.569,0,0,0,1.037,1.359c.163,1.122,1.041,1.44,1.041,2.64.641.722.563,2.162,1.04,3.121-.4.641.163,1.84-.478,2.321,0,.237.159.4.159.641-.241.878-.959,1.278-.959,2.318-.159.081-.159.241-.481.159.159.963-.56,1.04-.478,1.922-.8.959-1.2,2.318-2.244,3.04-.236,1.118-1.118,1.6-1.6,2.559-.959.481-.877,2-1.918,2.321.078,1.518-1.28,1.518-1.681,2.559.081.722,1.04.481,1.2.963,1.921,4.717,4.08,6,8.96,10.638a77.4,77.4,0,0,0,7.92,6.48c.081.641.322.722-.082,1.2.963,1.6-3.117,2.881-2.4,4.961A24.8,24.8,0,0,1-13834.448,208.85Zm-12.878-31.2c-.24.241-.48,1.04-.159,1.362.641-1.44,1.44-3.362,2.077-5.039a40.089,40.089,0,0,1,2.163-5.2,12.638,12.638,0,0,0,1.28-3.68c-.081-1.04-1.28-1.518-2.239-2a7.542,7.542,0,0,0-2.562-1.04c.081.641.56,1.2.641,1.922a17.477,17.477,0,0,1-.318,3.6c-.159,1.84-1.041,4-1.122,5.839-.078,1.362,0,2.721-.078,4.08,0,.159.078.12.159.078a.26.26,0,0,1,.1-.035C-13847.351,177.533-13847.326,177.56-13847.326,177.648Zm52.641,31.92a2.671,2.671,0,0,1-2.24-.878c0-2.8-.641-4.8.481-6.642.159-.237-.322,0-.241-.237.241-1.2.478-2.321.719-3.521.8-.722.722-1.922.962-2.881.237-.8.719-1.6.96-2.4.48-1.122.877-2.4,1.28-3.521.56-1.281,1.519-2.318,1.918-3.68a3.562,3.562,0,0,1,.56-.318c.563-1.84,1.763-2.881,2.64-4.321.082-.4-.159-.481-.159-.8.481-.159.322-.559.881-.481,0-.478-.159-.559,0-.959.719.481,1.519.881,2.322,1.359.959,2-.322,4.8-.882,6.72s-.962,3.843-1.521,5.361c2.321-1.359,3.2-4.48,5.68-5.361.082-.318.4-.478.481-.8,1.44-.641,2.881-1.918,5.361-1.677,1.84.159,4.317,1.118,4.718,2.477-.56.481-1.359,1.362-2.481,1.04-.4.081-.159-.559-.237-.878a18.592,18.592,0,0,0-8.4,5.28,10.315,10.315,0,0,0-1.841,2.64,3.237,3.237,0,0,0-.559,1.04c-.159.237,0,.637-.159.959a4.176,4.176,0,0,0-.641.878c-.56,1.122-.641,2.562-1.281,3.921-.081.241-.318.4-.481.641-.559,1.522-.959,3.44-1.44,5.039a3.6,3.6,0,0,1-1.2,1.681c-.4.8-1.2,3.121-1.922,3.28a.585.585,0,0,1-.095.008C-13792.48,212.538-13794.22,210.267-13794.686,209.569Zm-84.16,2.321c.081-.481-.159-.559-.241-.881-.24.081-.159.563-.24.8a6.908,6.908,0,0,1-.4-1.359.583.583,0,0,0-.347.018c-.116.035-.205.067-.293-.018a45.662,45.662,0,0,0-2.4-5.28c.563-.081,0-1.281.48-1.04a18.39,18.39,0,0,0,.241-4.321,14.641,14.641,0,0,0,.4-3.44c0-1.2.082-2.4,0-3.358-.081-1.04.479-1.922.159-2.881a52.473,52.473,0,0,0-6.238,2.159,1.731,1.731,0,0,1-.57-.021,1.416,1.416,0,0,0-.711.021c-.322.081-.4.4-.719.641-.48.241-1.2.241-1.762.481a6.828,6.828,0,0,1-.8.559c-.241.081-.641.081-.8.159a12.218,12.218,0,0,0-2.718,1.281c-.322,2.4-1.362,4.24-1.763,6.561a14.072,14.072,0,0,1-3.2,4.721c.082.318-.159.318-.081.637-.4.322-.719.722-1.118,1.04-.159,1.04-.481,1.922-1.362,2.162a2.115,2.115,0,0,1-1.2-.138,2.08,2.08,0,0,0-1.355-.1c-.481-2.962.959-5.28.881-7.679.078-.322.318-.4.4-.641.479-2.481,1.2-4.562,1.6-7.361.56-.4.4-1.281.719-1.681.081-.241.322-.078.163-.4.159,0,.077.159.237,0,0-.159-.237-.4.162-.318-.4-.559.078-1.359.56-1.681,0-.641-.082-.959.159-1.359.322-.481.24-1.522.881-1.681-.481-.881.719-2.159.959-3.2.082.078.241,0,.318-.081.085-.17.011-.159-.074-.149s-.162.018-.162-.092c.236-.959.877-1.518,1.036-2.64.723-.559.641-1.918,1.522-2.318a.937.937,0,0,1,.48-1.2c0-.163-.081-.081,0-.322a38.162,38.162,0,0,0,2.641-4.958c.718-.563.959-1.6,1.759-2.162.24-1.44,1.44-2,1.84-3.358a12.214,12.214,0,0,0,2.081-2.562c.559-.4,1.118-.637,1.277-1.359.563-.081.563-.559,1.04-.641,0-.078.082-.241,0-.241a14.027,14.027,0,0,1,2.962-2.718,36.246,36.246,0,0,1,5.68-1.922,5.63,5.63,0,0,1,5.6,1.922c1.922,2.24,1.759,7.279,1.6,11.278-.078,1.281.082,2.562,0,3.921-.078.641-.4,1.44-.478,2.081-.322,3.2-.481,5.92-.8,8.56a7.884,7.884,0,0,1-.562,2.718,22.593,22.593,0,0,1,.081,3.362,7.915,7.915,0,0,0-.24,1.918c0,1.522.24,3.04.322,4.48a46.873,46.873,0,0,0,.236,4.721c.322,2,.8,4.4,1.041,6.48a2.031,2.031,0,0,0-.318,1.281c-.56.241-.641.959-.882,1.44-.559-.241-.877-.641-1.44-.881-1.358.4-2.877.722-4.317,1.122C-13877.328,211.409-13878.524,211.009-13878.846,211.89Zm-1.44-47.76c-.881.481-1.118,1.681-2.081,2.159v.4a39.868,39.868,0,0,0-3.758,5.28c-2.962,3.84-4.8,8.882-6.8,13.762-.241,1.6-1.041,3.2-1.118,4.717a8.667,8.667,0,0,0,3.117-.878,45.564,45.564,0,0,1,9.842-2.8c.159-1.922.322-3.28.559-4.961,0-.117-.074-.067-.148-.021s-.17.106-.17-.06a2.868,2.868,0,0,0,.4-2.877c.718-.722.641-2.4.481-3.2.159-.159.4-.159.478-.4,0-1.278.641-2.881.24-3.84a2.159,2.159,0,0,0,.4-.718c-.241-.163-.241-.4-.241-.722.4-.318.481-.959.641-1.518-.881-1.762.641-4.562.159-6.879C-13878.928,162.531-13879.964,162.93-13880.286,164.13Zm132.319,46.879a32.926,32.926,0,0,1-4.158-1.918c-.562-.722-1.921-1.122-2.162-1.84.723-.241.322-.081.563.241,2.8-.563,4.4-2.321,6.317-3.68.322,0,.163-.481.4-.559,1.362-.722,1.922-2.24,1.922-4.162.081-2.159-1.04-4.321-.959-6.561.159-5.121,2.158-10.8,5.2-13.278.159-.163.481-.163.8-.4.722-.563,1.841-.563,3.6-.241,1.439.241,4.08,1.04,4.961,2.318.081.641-.159.963-.078,1.6-.562.163-.8.8-1.2,1.04-.4.163-.877.163-1.2.322a12.308,12.308,0,0,0-2.48,1.677,16.188,16.188,0,0,0-2.878,4.4,6.445,6.445,0,0,1-.722,2.718c-.077.322.082.4.082.641-.641,1.84.159,5.121.48,7.6a19.335,19.335,0,0,0,.159,2.159c0,.241.237.4.237.641.082.881-.159,1.922-.159,2.8,0,.241.082.481.082.722-.319,2.081-1.6,3.04-3.521,3.921a10.841,10.841,0,0,1-1.908.153A20.108,20.108,0,0,1-13747.967,211.009Zm-100.5-18.608.105-.031c.085.061.1.086.073.086A.737.737,0,0,1-13848.472,192.4Zm282.506-15.842c0-3.153,2.6-4.165,6.027-4.165,3.9,0,8.981,3.535,8.981,6.313,0,1.766-2.244,3.157-6.618,3.157C-13562.894,181.863-13565.966,179.591-13565.966,176.558Zm-62.594.393a1.38,1.38,0,0,0-1.087-.1c-1.918-1.278-.8-5.358-1.118-7.6,1.04.8,3.04.878,4.4.878.723,1.04,2.722,1.44,3.122,2.64.236.963-.723.881-1.281,1.362-.641.478-1.841,2.8-2.959,2.958a1.112,1.112,0,0,1-.313.044A2.178,2.178,0,0,1-13628.56,176.951Zm-271.456-58.9c-4.5-1.8-5.549-5.7-5.7-10.351-.3-3,.449-8.249,1.051-11.4.3-2.4,1.649-4.2.9-7.053-4.048,3.751-6.748,9.749-9.9,15-.152,1.649-.6,2.849-1.653,3.45-.449,2.251-1.8,3.15-3,4.8-.75.9-1.652,1.95-1.95,1.95-1.652.152-2.7-2.247-3.9-3.15-1.047-.9-2.548-1.2-3.3-2.849-3.149-.9-4.048-4.5-3.9-8.1-.3-.75.449-.149.449-.75-.3-5.4,1.95-8.7,2.552-13.95,2.4-5.252,3.6-11.25,6.9-15.45,0-1.5.9-2.1,1.2-3.3,2.4-2.251,3.15-6.3,5.7-8.4,0-.149-.149-.3-.149-.6,2.549,1.352,5.248,2.7,6,6a20.442,20.442,0,0,1-2.4,4.8c-2.251,7.2-5.248,13.051-6.6,20.7a8.5,8.5,0,0,0,1.352-2.1c.6-.3.6-.9,1.5-.75a259.61,259.61,0,0,1,19.65-25.8c0-.152-.449-.152-.6-.152.9-1.8,2.548-.75,4.048-.449,2.552,1.051,6.6.75,9,1.8.151,6.749-1.95,12.149-4.049,18.151a52.838,52.838,0,0,1-3.6,8.249,15.024,15.024,0,0,1-2.251,7.049,35.667,35.667,0,0,1-2.4,8.55c.3,6-1.95,8.7-.9,13.649.152.75.75,1.653.152,2.7a3.3,3.3,0,0,1-.7.077C-13898.191,120.375-13899.221,118.977-13900.016,118.051Zm30.749-3.45c-3.45-2.852-3.747-8.4-3-13.649,0-.6.3-.6.9-.6-.6-4.8,6.6-22.949,8.1-27.6-1.652-.449-3.751-1.2-5.252-.9-2.1-3-6.9-4.349-8.1-7.5,5.552,1.5,12.449-1.051,18.15-1.2,2.4-1.8,2.4-4.65,4.649-6.3-.148-.75.45-.9.3-1.5,5.55-7.5,10.949-15,17.55-21.6.449-.449-.149-.9.449-1.2,1.5-.75,2.4-2.4,4.052-3.3.449,4.951-1.2,9.452-2.7,13.2-2.853,4.65-5.252,10.2-8.4,14.7-.148,2.1-2.4,4.8-3.6,6.9,2.7,1.95,7.351,1.95,9.147,5.1-1.2,1.2-3,1.2-5.549,1.051-2.4,1.051-6.15.75-8.1,2.1-4.2,9.6-15,32.4-13.5,45.6C-13865.965,117-13866.715,114.75-13869.267,114.6Zm-89.1,2.849c-2.4-.3-4.049-2.548-5.85-4.2-3.752-3.6-7.05-5.7-8.4-12-.148-.75.152-1.649,0-2.4-.148-.3-.6-.449-.6-.9a31.842,31.842,0,0,1,.149-7.651c.3-1.649.3-3.45.75-5.549a36.213,36.213,0,0,1,7.65-14.1c-2.4-3.9-3-12,0-15.45.45-.747,4.049-3.6,5.4-3.15,1.2.449,2.1,2.1,3.751,2.7,1.8.9,4.35.9,5.85,1.8.751.449.9,1.2,1.5,1.5,1.954,1.5,4.8,1.5,5.7,3.45.6,2.548,2.251,4.8,2.7,7.5.75,2.7.6,5.85.9,8.7,0,.747.6,1.348.6,1.95a53.923,53.923,0,0,1-.3,8.7c-.3,1.051-.9,2.1-1.2,3.15,0,.75.3,1.5,0,1.95-1.2,5.85-3.149,10.8-6,14.251a6.244,6.244,0,0,0-.449,1.8c-1.653,1.5-2.853,3.447-4.654,5.1-1.117.979-4.2,2.878-6.93,2.878A5.408,5.408,0,0,1-13958.366,117.45Zm2.1-52.049c1.048,1.649,5.549,2.251,6,4.5.3,2.251-1.2,3.6-3.6,3.751-9,6.15-15,23.7-8.4,35.1,6.3-3.15,8.851-11.1,11.25-18.3.3-1.047.75-1.2,1.051-2.4.9-2.4,1.2-5.549,1.649-8.4.9-6-.6-10.8-1.5-15.45a2.41,2.41,0,0,0-2.235-1.194A5.079,5.079,0,0,0-13956.265,65.4Zm-52.65,51.3c-2.251-2.4-5.1-2.849-7.5-5.1-5.4-4.048-6.749-12.9-7.8-20.851,1.352-2.4.152-6.15,1.5-8.7-1.2-2.852.751-5.4.9-9.151,1.2.449,1.2-.449,1.8-1.051-.449-2.7,1.353-4.65,2.251-6.6,2.1-5.248,2.552-10.648,6.15-14.4,3.748-12,9.3-17.85,13.2-28.65,1.5-.75,2.25-2.548,3-3.6.6-4.048,3.9-6.749,5.85-9.749,0,.9,1.348,0,1.5-.9-1.652-.3,3.9-6.9,5.549-7.952,5.1,2.551,12.449,2.7,16.8,5.85,4.65,31.8-17.1,45.152-30.3,62.7a56.747,56.747,0,0,1,6.3,2.7c3.45,6.3,9,14.251,5.1,23.1-.6,1.2-2.247,2.852-3.3,4.353a11.036,11.036,0,0,1-1.648,4.048,124.7,124.7,0,0,1-7.651,9.9,13.623,13.623,0,0,1-9.381,4.3A10.811,10.811,0,0,1-14008.915,116.7Zm-1.2-36.149c-1.8,6.451-4.2,15.6-3.752,23.4.45,2.251,1.95,8.253,3.752,8.7a13.43,13.43,0,0,0,4.2-1.95c2.4-1.352,4.654-4.65,7.053-7.952,3.15-4.2,6.448-9.3,6.448-15.3,0-4.8-3.45-13.051-7.5-13.051h-.3C-14003.515,75.6-14006.516,78.3-14010.114,80.55Zm16.8-42.6c-.148,5.85-4.349,7.651-5.1,12.9,2.25-3.15,8.7-5.4,8.7-10.8.152-.9.75-1.2,1.652-1.8,2.7-6,6.448-11.25,8.1-18.6h-1.047C-13986.267,24.75-13988.518,32.4-13993.316,37.95Zm-55.8,76.2c.148-.9-.3-1.051-.449-1.653-.449.152-.3,1.051-.449,1.5a12.526,12.526,0,0,1-.75-2.548,1.129,1.129,0,0,0-.655.035c-.216.064-.382.127-.545-.035a85.541,85.541,0,0,0-4.5-9.9c1.051-.149,0-2.4.9-1.95.148-2.4.9-5.1.445-8.1.6-1.649.6-4.2.751-6.451,0-2.247.151-4.5,0-6.3-.149-1.95.9-3.6.3-5.4-3.9,1.352-8.1,2.251-11.7,4.052a3.281,3.281,0,0,1-1.062-.039,2.584,2.584,0,0,0-1.337.039c-.6.149-.751.75-1.353,1.2-.9.449-2.247.449-3.3.9a12.774,12.774,0,0,1-1.5,1.051c-.45.149-1.2.149-1.5.3a22.9,22.9,0,0,0-5.1,2.4c-.6,4.5-2.551,7.948-3.3,12.3a26.342,26.342,0,0,1-6,8.847c.148.6-.3.6-.152,1.2-.746.6-1.348,1.348-2.1,1.95-.3,1.95-.9,3.6-2.548,4.048a3.984,3.984,0,0,1-2.258-.255,3.917,3.917,0,0,0-2.544-.195c-.9-5.549,1.8-9.9,1.649-14.4.151-.6.6-.75.75-1.2.9-4.65,2.25-8.55,3-13.8,1.051-.75.75-2.4,1.352-3.15.148-.449.6-.152.3-.75.3,0,.152.3.453,0,0-.3-.453-.75.3-.6-.751-1.047.151-2.548,1.051-3.15,0-1.2-.148-1.8.3-2.548.6-.9.449-2.852,1.649-3.15-.9-1.653,1.348-4.052,1.8-6,.148.149.449,0,.6-.149.16-.322.021-.3-.145-.28-.142.018-.3.035-.3-.173.449-1.8,1.649-2.849,1.95-4.947,1.352-1.051,1.2-3.6,2.853-4.353a1.761,1.761,0,0,1,.9-2.247c0-.3-.152-.152,0-.6,1.649-3.15,3.9-6.15,4.951-9.3,1.348-1.051,1.8-3,3.3-4.048.449-2.7,2.7-3.751,3.45-6.3,1.352-1.5,3.149-3.15,3.9-4.8,1.051-.75,2.1-1.2,2.4-2.551,1.052-.149,1.052-1.047,1.95-1.2,0-.149.152-.449,0-.449a26.373,26.373,0,0,1,5.553-5.1,68.13,68.13,0,0,1,10.648-3.6,10.546,10.546,0,0,1,10.5,3.6c3.6,4.2,3.3,13.649,3,21.151-.152,2.4.148,4.8,0,7.35-.152,1.2-.75,2.7-.9,3.9-.6,6-.9,11.1-1.5,16.049a14.783,14.783,0,0,1-1.051,5.1,43.014,43.014,0,0,1,.148,6.3,14.989,14.989,0,0,0-.449,3.6c0,2.849.449,5.7.6,8.4a87.15,87.15,0,0,0,.449,8.851c.6,3.751,1.5,8.253,1.95,12.152a3.8,3.8,0,0,0-.6,2.4c-1.052.449-1.2,1.8-1.653,2.7-1.047-.449-1.648-1.2-2.7-1.649-2.548.747-5.4,1.348-8.1,2.1C-14046.268,113.249-14048.515,112.5-14049.116,114.151Zm-2.7-89.553c-1.648.9-2.1,3.153-3.9,4.052v.75a74.428,74.428,0,0,0-7.05,9.9c-5.549,7.2-9,16.65-12.75,25.8-.449,3-1.95,6-2.1,8.851,1.949.149,4.052-1.051,5.853-1.649a85.287,85.287,0,0,1,18.448-5.252c.3-3.6.6-6.15,1.051-9.3,0-.216-.138-.124-.279-.035s-.322.2-.322-.113c1.051-.9,1.652-4.2.75-5.4,1.353-1.352,1.2-4.5.9-6,.3-.3.751-.3.9-.75,0-2.4,1.2-5.4.449-7.2a3.884,3.884,0,0,0,.75-1.352c-.449-.3-.449-.75-.449-1.348.75-.6.9-1.8,1.2-2.852-1.649-3.3,1.2-8.55.3-12.9C-14049.265,21.6-14051.215,22.351-14051.816,24.6Z" transform="translate(14100)"/>
</svg>
