<svg xmlns="http://www.w3.org/2000/svg" width="659" height="277" viewBox="0 0 659 277">
  <defs>
    <style>
      .cls-1 {
        font-size: 150px;
      }

      .cls-1, .cls-2 {
        font-family: SixHands-Brush, Six Hands;
      }

      .cls-2 {
        font-size: 80px;
      }
    </style>
  </defs>
  <g id="Group_1" data-name="Group 1" transform="translate(-601 -172)">
    <text id="About" class="cls-1" transform="translate(602 172)"><tspan x="0" y="145">About</tspan></text>
    <text id="ARTrospective" class="cls-2" transform="translate(796 339)"><tspan x="0" y="77">ARTrospective</tspan></text>
    <path id="path4" d="M0,32.566C0,29.411,2.6,28.4,6.028,28.4c3.9,0,8.982,3.534,8.982,6.311,0,1.767-2.246,3.156-6.619,3.156C3.073,37.868,0,35.6,0,32.566ZM8.864,62.229c0-7.7,21.038-.126,21.038-12.749,0-5.3-8.864-6.942-8.864-10.729,0-4.8,16.783.5,16.783-7.952,0-5.3-8.155-6.185-8.155-13.254,0-1.767.946-3.408,2.718-3.408,7.919,0,3.546,16.788,15.483,16.788,4.491,0,6.855-3.534,6.855-8.962,0-6.438-2.364-8.583-2.364-15.9C52.358,3.156,54.012,0,57.44,0c3.191,0,5.318,3.156,5.318,6.438,0,8.457-3.546,8.71-3.546,16.283,0,11.36,4.728,14.137,13.474,14.137,4.964,0,7.446-10.1,12.646-10.1,4.137,0,5.791,2.777,5.791,5.68,0,6.942-17.61,2.146-17.61,18.05,0,18.934,24.583,7.952,24.583,20.07,0,2.651-1.3,4.923-4.137,4.923-8.628,0-7.564-9.719-25.411-9.719-6.5,0-7.682,6.185-7.682,11.36,0,6.942,4.491,8.078,4.491,11.865,0,3.156-2.364,4.67-5.082,4.67-7.682,0,.709-24.362-14.419-24.362-15.483,0-9.455,29.158-23.52,29.158-2.955,0-4.964-1.893-4.964-5.3,0-12.875,16.783-12.5,16.783-25.876,0-4.923-3.664-6.438-6.737-6.438-6.028,0-10.4,4.292-14.3,4.292-2.482,0-4.255-.884-4.255-2.9ZM73.277,92.776a5.33,5.33,0,1,1,5.318,5.68A5.485,5.485,0,0,1,73.277,92.776Z" transform="translate(1136 349.544)"/>
  </g>
</svg>
