<svg xmlns="http://www.w3.org/2000/svg" width="512" height="512" viewBox="0 0 512 512">
  <path id="instagram-icon" d="M449.446,0A62.584,62.584,0,0,1,512,62.554V449.446A62.584,62.584,0,0,1,449.446,512H62.554A62.584,62.584,0,0,1,0,449.446V62.554A62.584,62.584,0,0,1,62.554,0H449.446ZM256,81c-47.527,0-53.487.2-72.152,1.053-18.627.85-31.348,3.808-42.48,8.135a89.482,89.482,0,0,0-51.181,51.18c-4.326,11.132-7.284,23.853-8.135,42.48C81.2,202.513,81,208.473,81,256s.2,53.487,1.052,72.152c.851,18.627,3.809,31.348,8.135,42.48a89.488,89.488,0,0,0,51.181,51.181c11.132,4.326,23.853,7.284,42.48,8.134C202.513,430.8,208.473,431,256,431s53.487-.2,72.152-1.053c18.627-.85,31.348-3.808,42.48-8.134a89.488,89.488,0,0,0,51.181-51.181c4.326-11.132,7.284-23.853,8.134-42.48C430.8,309.487,431,303.527,431,256s-.2-53.487-1.053-72.152c-.85-18.627-3.808-31.348-8.134-42.48a89.482,89.482,0,0,0-51.181-51.18c-11.132-4.327-23.853-7.285-42.48-8.135C309.487,81.2,303.527,81,256,81Zm0,31.532c46.727,0,52.262.178,70.715,1.02,17.062.779,26.328,3.63,32.495,6.025a57.955,57.955,0,0,1,33.213,33.213c2.4,6.167,5.247,15.433,6.025,32.495.842,18.453,1.021,23.988,1.021,70.715s-.179,52.262-1.021,70.715c-.778,17.062-3.629,26.328-6.025,32.495a57.955,57.955,0,0,1-33.213,33.213c-6.167,2.4-15.433,5.247-32.495,6.025-18.45.842-23.985,1.021-70.715,1.021s-52.264-.179-70.715-1.021c-17.062-.778-26.328-3.629-32.495-6.025a57.955,57.955,0,0,1-33.213-33.213c-2.4-6.167-5.247-15.433-6.026-32.495-.842-18.453-1.02-23.988-1.02-70.715s.178-52.262,1.02-70.715c.779-17.062,3.63-26.328,6.026-32.495a57.955,57.955,0,0,1,33.213-33.213c6.167-2.395,15.433-5.246,32.495-6.025,18.453-.842,23.988-1.02,70.715-1.02Zm0,53.6A89.865,89.865,0,1,0,345.865,256,89.865,89.865,0,0,0,256,166.135Zm0,148.2A58.333,58.333,0,1,1,314.333,256,58.332,58.332,0,0,1,256,314.333ZM370.416,162.585a21,21,0,1,1-21-21,21,21,0,0,1,21,21Z" fill="#fff" fill-rule="evenodd"/>
</svg>
