<svg xmlns="http://www.w3.org/2000/svg" width="193.772" height="39.225" viewBox="0 0 193.772 39.225">
  <defs>
    <style>
      .cls-1 {
        fill: #fff;
      }
    </style>
  </defs>
  <path id="Union_1" data-name="Union 1" class="cls-1" d="M182.446,36.961a2.433,2.433,0,1,1,2.427,2.264A2.339,2.339,0,0,1,182.446,36.961Zm-25.51.151c0-5.129,7.659-4.979,7.659-10.309,0-1.961-1.672-2.564-3.074-2.564-2.75,0-4.746,1.71-6.526,1.71-1.132,0-1.941-.353-1.941-1.157,0-3.067,9.6-.049,9.6-5.079,0-2.112-4.045-2.766-4.045-4.274,0-1.912,7.659.2,7.659-3.168,0-2.112-3.721-2.464-3.721-5.28a1.252,1.252,0,0,1,1.24-1.358c3.614,0,1.618,6.688,7.065,6.688,2.049,0,3.128-1.408,3.128-3.57,0-2.564-1.079-3.419-1.079-6.336A2.294,2.294,0,0,1,175.219,0a2.491,2.491,0,0,1,2.427,2.565c0,3.369-1.618,3.47-1.618,6.487,0,4.525,2.157,5.632,6.149,5.632,2.265,0,3.4-4.023,5.771-4.023,1.887,0,2.642,1.106,2.642,2.263,0,2.766-8.036.855-8.036,7.191,0,7.543,11.219,3.168,11.219,8a1.794,1.794,0,0,1-1.888,1.961c-3.937,0-3.452-3.872-11.6-3.872-2.966,0-3.506,2.464-3.506,4.526,0,2.766,2.049,3.218,2.049,4.727,0,1.257-1.078,1.86-2.319,1.86-3.505,0,.324-9.706-6.58-9.706-7.065,0-4.315,11.617-10.732,11.617A2.031,2.031,0,0,1,156.936,37.112Zm-82.168-.5c-.98-2.1-.069-4.8.28-7.035a2.589,2.589,0,0,1,.315-.806c.105-.525.105-1.19.455-1.5a2.646,2.646,0,0,1,.21-1.015A27.366,27.366,0,0,1,77.5,22.222c.035-.175-.035-.21-.035-.315A41.013,41.013,0,0,1,79.6,17.392c0-.105-.035-.281.035-.315a4.272,4.272,0,0,0,1.19.349,2.81,2.81,0,0,1,.315.911c-.035.14-.245.419-.315.664-.035.105.035.246,0,.385s-.21.315-.21.526c-.035.139.035.245.035.349-.035.526-.35,1.015-.42,1.541,1.085-.665,2.1-1.856,3.64-2a1.99,1.99,0,0,1,.945.245,4.017,4.017,0,0,1,1.015.21c.56.42.526,1.68.211,2.416a13.755,13.755,0,0,1-1.61,2.59,4.891,4.891,0,0,0-.455.63,4.669,4.669,0,0,1-1.225,1.26,1.085,1.085,0,0,1-.175.419c-.105.07-.246.14-.42.245a12.835,12.835,0,0,1-1.54,1.541c-.315-.035-.35.139-.455.21a2.045,2.045,0,0,1-1.679-.525,23.213,23.213,0,0,0-1.856,5.88c-.034.665-.21,1.715-.175,2.52C75.748,37.307,75.608,36.608,74.768,36.608Zm8.89-15.54a8.93,8.93,0,0,1-1.75,1.68c-.385.84-1.191,1.26-1.54,2.1-.14,0-.14.105-.211.139-.385,1.015-1.19,1.68-1.435,2.87,1.155-.384,1.785-1.3,2.73-1.925a23.271,23.271,0,0,0,2.555-3.254c.035-.841.595-1.156.63-2.1C84.253,20.682,84.078,20.962,83.658,21.067ZM61.187,30.9c-.1-.105-.349-.176-.525-.315-.07-.035-.07-.211-.175-.246-.455-.455-1.471-.595-1.68-1.155-.07-.21-.035-.7-.105-1.05-.1-.315-.455-.875-.035-1.294a4.02,4.02,0,0,1,.315-2.416c.175-.595.455-1.364.735-2.24a24.761,24.761,0,0,0,1.645-2.765c.525-.035.455-.735.91-.77,0-.175-.105-.246.07-.49a3.5,3.5,0,0,0,2.1.35c.175-.315.07-.595.14-.875a.561.561,0,0,1,.734-.14,3.6,3.6,0,0,1,.595,1.786,8.582,8.582,0,0,1,.035,5.144,2.717,2.717,0,0,1,.07.98,1.442,1.442,0,0,1-.245.385c-.315,1.68-1.3,2.765-1.785,4.27-.315.315-.665.595-.561,1.05a2.163,2.163,0,0,0-.595.525,2,2,0,0,1-.483.068C61.774,31.705,61.584,31.326,61.187,30.9Zm.945-3.22a11.8,11.8,0,0,0,2.275-7.035C63.113,21.907,61.538,25.547,62.132,27.682Zm71.89,3.045a9.382,9.382,0,0,0-1.12-.84,5.222,5.222,0,0,1-.875-1.436c-.105-.8-.455-1.959-.105-2.66,0-.105-.175-.07-.14-.21a16.758,16.758,0,0,1,3.885-8.716.6.6,0,0,0,.63-.21,3.39,3.39,0,0,0,1.645,1.12c.35.035.63,0,.875.035a2.336,2.336,0,0,1,.98,2.59,12.208,12.208,0,0,1-.735,1.575,12.213,12.213,0,0,1-1.5,2.275,6.393,6.393,0,0,0-1.085.84.967.967,0,0,1-.349.035c-.35.49-.98.595-1.471.91a4.8,4.8,0,0,0-.245,1.645,3.105,3.105,0,0,0,.21,1.855c.07.21.315.595.49.63.454.07,1.26-.595,1.645-.875a10.369,10.369,0,0,0,2.8-3.22c.315.175.1.49.069.735a5.887,5.887,0,0,1-.595,1.47c.28.455-.245.735-.384,1.05-.035.175,0,.384-.035.525a4.818,4.818,0,0,1-1.085.91,9.1,9.1,0,0,1-.945.735,2.513,2.513,0,0,1-.675.1A3.1,3.1,0,0,1,134.023,30.727Zm2.625-11.06c0,.14-.07.176-.035.315-.665.526-.63,1.54-1.155,2.17.069.841-.876,1.015-.211,1.68.35-.665,1.085-1.015,1.225-2.03.246-.07.526-.455.455-.665.245-.035.105-.28.35-.315-.07-.07-.105-.105-.105-.176a1.643,1.643,0,0,0,.49-1.049.647.647,0,0,1-.469.034,1.838,1.838,0,0,0-.264-.025A.62.62,0,0,0,136.648,19.667ZM89.537,30.727a9.238,9.238,0,0,0-1.12-.84,5.222,5.222,0,0,1-.875-1.436c-.105-.8-.455-1.959-.105-2.66,0-.105-.175-.07-.139-.21a16.75,16.75,0,0,1,3.884-8.716.6.6,0,0,0,.63-.21,3.39,3.39,0,0,0,1.645,1.12c.35.035.63,0,.875.035a2.336,2.336,0,0,1,.98,2.59,11.971,11.971,0,0,1-.735,1.575,12.168,12.168,0,0,1-1.5,2.275,6.421,6.421,0,0,0-1.084.84.975.975,0,0,1-.35.035c-.35.49-.98.595-1.471.91a4.8,4.8,0,0,0-.245,1.645,3.106,3.106,0,0,0,.211,1.855c.069.21.315.595.49.63.455.07,1.26-.595,1.645-.875a10.369,10.369,0,0,0,2.8-3.22c.315.175.105.49.07.735a5.921,5.921,0,0,1-.595,1.47c.28.455-.246.735-.385,1.05-.035.175,0,.384-.035.525a4.818,4.818,0,0,1-1.085.91,9.007,9.007,0,0,1-.945.735,2.513,2.513,0,0,1-.675.1A3.1,3.1,0,0,1,89.537,30.727Zm2.625-11.06c0,.14-.07.176-.035.315-.665.526-.63,1.54-1.155,2.17.07.841-.875,1.015-.21,1.68.349-.665,1.085-1.015,1.225-2.03.245-.07.525-.455.454-.665.245-.035.105-.28.35-.315-.07-.07-.105-.105-.105-.176a1.638,1.638,0,0,0,.491-1.049.647.647,0,0,1-.469.034,1.839,1.839,0,0,0-.264-.025A.62.62,0,0,0,92.163,19.667Zm16.1,10.956c-.8-.665-.875-1.96-.7-3.185,0-.14.07-.14.211-.14-.14-1.12,1.54-5.355,1.89-6.44a3.114,3.114,0,0,0-1.226-.211c-.49-.7-1.609-1.015-1.89-1.75,1.3.35,2.905-.245,4.235-.28.56-.42.56-1.085,1.085-1.471-.035-.175.1-.21.069-.35a43.762,43.762,0,0,1,4.1-5.04c.105-.1-.035-.21.105-.28.35-.175.56-.56.945-.769a6.641,6.641,0,0,1-.63,3.08c-.665,1.085-1.225,2.38-1.96,3.43a5.084,5.084,0,0,1-.84,1.61c.63.455,1.715.455,2.135,1.19-.28.28-.7.28-1.3.245-.56.246-1.435.176-1.89.491-.98,2.24-3.5,7.56-3.15,10.64C109.033,31.182,108.858,30.657,108.263,30.623Zm7.1-1.541c-.034-.1.035-.139.07-.245-.28-2.485,1.751-7.91,2.52-9.765.175-.07.211-.245.385-.315a1.985,1.985,0,0,0-.035-.245c.175-.07.245-.28.385-.35-.035-.28.21-.49.385-.7.91.28,2.135.42,2.205,1.365.035.77-.595,1.19-.7,1.89a4.725,4.725,0,0,1-.455,1.68c0,.1-.1.315.035.315-.63,1.26-1.679,6.58-2.03,7.84a.884.884,0,0,1,.035.525c-.07.175-.35.105-.491.245C116.838,30.692,115.753,30.272,115.367,29.082Zm6.72-.175c.07-.91-.07-1.645.07-2.485a5.647,5.647,0,0,1,.35-.63c.1-.63.1-1.33.28-2a25.177,25.177,0,0,0,.875-3.465c.105-.734.525-1.47.595-2.2.035-.21-.14-.28-.14-.49,1.994.595,1.54,3.64,1.26,5.635.139-.07.98-.105.734-.63.665-.21.455-1.26,1.156-1.435.139-.069-.14-.034-.07-.28.91-1.5,1.75-3.115,2.73-4.62a.718.718,0,0,1,0-.385c.491-.28.77-1.89,1.5-1.96.561-.034.665.6.665,1.26-.49.945-.7,2.275-1.19,3.255a5.768,5.768,0,0,1-.525,1.855c0,.105-.211.105-.245.176-.175.245-.281.665-.455.98-.105.245-.105.63-.21.91-.14.455-.561.77-.77,1.225-.07.175-.035.419-.105.63-.419.8-.945,1.679-1.329,2.38a1.573,1.573,0,0,1-.491,1.3,5.778,5.778,0,0,1-2.03,3.08C123.593,30.552,123.418,29.152,122.088,28.907Zm-79.6,1.912a.673.673,0,0,0-.723-.092c-.245-.175-.525-.245-.63-.525-.42.035-.665-.35-1.084-.35a.619.619,0,0,0-.281.035.642.642,0,0,1-.28.035c-.28-.035-.384-.315-.63-.35-.1-.105.035-.035.035-.14a4.225,4.225,0,0,1-1.155-2.555,4.65,4.65,0,0,0,0-.7c0-.07-.07-.105-.105-.14a14.142,14.142,0,0,1,.035-3.43,24.783,24.783,0,0,1,.525-3.22,11.675,11.675,0,0,1,.77-3.254c.105-1.26.84-2.451,1.015-3.64.21-.105.1-.455.35-.525-.035-.175.1-.491.069-.7a13.693,13.693,0,0,1,.735-1.4,8.325,8.325,0,0,0-2-.455c-.49-.105-1.329-.28-1.924-.385-.281-.07-.561-.035-.806-.105-.49-.069-.875-.384-1.33-.455a1.088,1.088,0,0,0-.7-.315c-.07-.35-.6-.455-.63-.735.77-.07,1.54-.175,2.309-.245,2.275-.21,4.655.21,7,.21.735,0,1.47-.1,2.205-.1.77,0,1.54.1,2.31.14a11.114,11.114,0,0,0,1.812-.084,11.8,11.8,0,0,1,1.583-.091c.175.35.7.665.63,1.015.035.069.175.069.21.139.105.42-.139.63-.245.98a9.995,9.995,0,0,1-2.975.49,6.671,6.671,0,0,1-1.54.281,2.792,2.792,0,0,1-.5.007c-.309-.016-.566-.031-.729.2-.035.35.211.595.211.945,0,.21-.175.385-.281.63-.069.21-.034.455-.1.595a9.789,9.789,0,0,0-.56,1.05c-.035.175,0,.35-.035.525a13.576,13.576,0,0,1-.595,2.2,27.36,27.36,0,0,1-.876,3.885c-.069.21,0,.455-.069.665-.035.069-.14.175-.176.245-.035.139.035.315,0,.49,0,.105-.105.211-.139.35a11.576,11.576,0,0,0-.14,1.155c-.105.561-.28,1.121-.35,1.645-.035.315,0,.665-.035,1.015a5.6,5.6,0,0,0-.175,1.015c0,.385.139.77.139,1.155-.035,1.015.42,2,.42,3.045a.533.533,0,0,1-.111.012A.944.944,0,0,1,42.485,30.819Zm56.922-.477a9.145,9.145,0,0,1-.77-.875c-.175-.175-.42-.21-.6-.35-1.679-1.225-1.89-4.725-1.014-6.335a12.487,12.487,0,0,1,1.155-2.38c.42-.7.8-1.4,1.155-1.96.28-.315.735-.525.735-.98.455-.139.455-.63.84-.84,1.3.7,3.115.7,4.165,1.61a4.673,4.673,0,0,1-.105,3.08,4.966,4.966,0,0,1-1.155,2.066c-.105.034-.21.069-.35.1-.245.175-.385.49-.8.56a.822.822,0,0,0-.634-.063,1.991,1.991,0,0,1-.452.029,18.444,18.444,0,0,1-.175-3.15c-.385.245-.595,1.12-.91,1.575.069.84-.42,1.329-.561,2.029-.034.176.035.385,0,.595a10.459,10.459,0,0,0,.211,3.641c1.225-.526,1.785-1.715,2.344-2.94.42.56.175,1.435.491,2.065,0,.876-.35,1.33-.385,2.31a1.448,1.448,0,0,1-1.422.841A2.922,2.922,0,0,1,99.408,30.342ZM31.3,29.187a6.785,6.785,0,0,1-1.89-1.575c-1.575-1.3-1.5-3.85-2.309-6.335a.412.412,0,0,0-.35.385c-.11.109-.274.081-.433.054a.845.845,0,0,0-.267-.019c-1.085.175-.63-.105-1.12-.21-.211-.035-.105.21-.246.245-.113-.032.04.052.213.138.1.047.2.093.266.12-.209.061-.278.09-.41.057a1.815,1.815,0,0,0,.07.49c-.245.42-.07,1.015-.176,1.435-.034.175-.139.245-.175.384-.035.42.035.98,0,1.4,0,.315-.105.63-.105.91.035.385.246.7,0,1.05-.035.175.211.1.14.28-.315.91.21,1.855.139,2.8-.419-.105-.525-.525-1.084-.49-.105.034.07.1,0,.175-.21-.07-.21-.35-.385-.49-.07.034-.175.034-.21.069,0,.246.385.14.35.385-.246-.07-.385-.28-.561-.42-.734.105-.91-.28-1.294-.49-.07-.49-.735-.525-.806-1.12-.035-.07-.175-.035-.175-.105-.035-.14.069-.105.069-.175-.979-1.785-1.014-4.655-1.084-7.034.21-1.645.105-3.01.28-4.515a26.771,26.771,0,0,1,1.12-5.39c.035-.175.211-.315.246-.49.1-.245.1-.56.21-.77a5.094,5.094,0,0,1,.315-.455c.035-.105,0-.211.035-.315.175-.315.455-.63.63-.945.105-.246.139-.526.385-.7-.561-.245-1.471-.14-2.1-.35-.525.21-.91-.315-1.4-.385-.28-.454-1.015-.454-1.33-.91,1.4-.105,2.59-.385,3.78-.35.385.035,1.085.175,1.54.211a14.384,14.384,0,0,1,5.775,2.135A2.12,2.12,0,0,1,29.9,8.4c.419.175.595.63.945.945a2.437,2.437,0,0,0,.455.595c.07.491.455.63.455,1.156.28.315.245.945.455,1.364-.175.28.07.806-.21,1.015,0,.105.07.175.07.28-.105.385-.42.56-.42,1.015-.07.035-.07.105-.21.07.07.419-.245.455-.21.84-.35.42-.526,1.015-.98,1.33-.105.49-.49.7-.7,1.12-.42.211-.385.875-.84,1.015.034.665-.561.665-.735,1.12.035.315.455.211.525.42.841,2.066,1.786,2.625,3.92,4.655a33.854,33.854,0,0,0,3.465,2.835c.035.28.139.315-.035.526.42.7-1.365,1.26-1.05,2.17A10.812,10.812,0,0,1,31.3,29.187Zm-5.635-13.65c-.1.105-.21.455-.07.6.281-.63.63-1.471.911-2.2a17.37,17.37,0,0,1,.945-2.275,5.548,5.548,0,0,0,.56-1.61c-.035-.455-.56-.665-.98-.875a3.281,3.281,0,0,0-1.121-.455c.035.28.246.525.281.84a7.57,7.57,0,0,1-.14,1.575c-.07.806-.455,1.75-.49,2.555-.035.595,0,1.191-.035,1.786,0,.069.034.052.069.034a.118.118,0,0,1,.044-.016C25.652,15.486,25.663,15.5,25.663,15.537ZM48.693,29.5a1.165,1.165,0,0,1-.98-.385c0-1.225-.28-2.1.211-2.9.069-.105-.14,0-.105-.105.105-.525.21-1.015.315-1.54.35-.315.315-.841.42-1.26.1-.35.315-.7.419-1.05.211-.49.385-1.05.56-1.54a14.028,14.028,0,0,0,.841-1.61,1.451,1.451,0,0,1,.245-.139,7.8,7.8,0,0,1,1.155-1.89c.035-.176-.069-.211-.069-.35.21-.07.139-.246.384-.211,0-.21-.069-.245,0-.419.315.21.665.384,1.015.595.42.875-.14,2.1-.385,2.939s-.419,1.68-.665,2.345c1.015-.595,1.4-1.96,2.486-2.345.034-.139.175-.21.21-.349a4.048,4.048,0,0,1,2.344-.735c.806.07,1.89.49,2.066,1.084-.245.211-.595.6-1.085.455-.175.035-.069-.245-.1-.385a8.163,8.163,0,0,0-3.676,2.31,4.546,4.546,0,0,0-.8,1.155,1.449,1.449,0,0,0-.245.455c-.07.1,0,.28-.07.419a1.848,1.848,0,0,0-.28.385c-.245.49-.28,1.121-.56,1.715-.035.1-.14.175-.211.28-.245.665-.419,1.5-.63,2.2a1.588,1.588,0,0,1-.525.735c-.176.349-.525,1.364-.84,1.435a.253.253,0,0,1-.042,0C49.657,30.8,48.9,29.807,48.693,29.5Zm-36.82,1.015c.035-.21-.07-.245-.105-.385-.1.035-.069.245-.1.35a2.947,2.947,0,0,1-.175-.595.266.266,0,0,0-.151.008c-.051.015-.09.031-.129-.008a20.056,20.056,0,0,0-1.05-2.31c.246-.035,0-.56.211-.455a8.085,8.085,0,0,0,.1-1.89,6.336,6.336,0,0,0,.175-1.506c0-.525.035-1.049,0-1.47-.035-.455.21-.84.07-1.26a22.8,22.8,0,0,0-2.731.945.775.775,0,0,1-.248-.009.6.6,0,0,0-.311.009c-.139.035-.175.175-.315.28-.21.105-.525.105-.769.211a3.221,3.221,0,0,1-.35.245c-.105.035-.28.035-.35.07a5.274,5.274,0,0,0-1.19.56c-.14,1.049-.6,1.855-.77,2.87a6.15,6.15,0,0,1-1.4,2.065c.035.14-.069.14-.034.28-.175.14-.315.315-.49.455-.07.455-.21.84-.595.945a.933.933,0,0,1-.527-.06.922.922,0,0,0-.593-.045c-.211-1.3.419-2.31.384-3.36.035-.14.14-.175.175-.28.21-1.085.525-2,.7-3.22.245-.176.175-.56.315-.735.034-.1.14-.035.069-.175.07,0,.035.07.105,0,0-.07-.105-.175.07-.14-.176-.245.035-.595.245-.734,0-.281-.035-.42.07-.6.14-.21.1-.664.385-.734-.211-.385.315-.945.419-1.4.035.035.105,0,.14-.035.037-.075,0-.07-.034-.065s-.071.009-.071-.04c.105-.42.385-.665.455-1.156.315-.245.28-.84.665-1.014a.412.412,0,0,1,.21-.526c0-.07-.035-.035,0-.139A16.321,16.321,0,0,0,5.5,13.3c.315-.246.42-.7.77-.945.1-.63.63-.876.8-1.471a5.312,5.312,0,0,0,.91-1.12c.246-.175.491-.28.561-.595.245-.035.245-.246.454-.28,0-.035.035-.105,0-.105a6.136,6.136,0,0,1,1.3-1.19,15.988,15.988,0,0,1,2.485-.841,2.463,2.463,0,0,1,2.45.841c.841.98.77,3.185.7,4.935-.035.56.035,1.12,0,1.715-.035.28-.175.63-.21.91-.14,1.4-.211,2.589-.35,3.745a3.454,3.454,0,0,1-.245,1.19,10.157,10.157,0,0,1,.035,1.47,3.447,3.447,0,0,0-.105.841c0,.665.105,1.329.139,1.959a20.35,20.35,0,0,0,.105,2.066c.14.875.35,1.925.455,2.835a.885.885,0,0,0-.14.56c-.245.105-.28.42-.385.63-.245-.105-.384-.28-.63-.385-.595.176-1.26.315-1.89.491C12.538,30.308,12.013,30.132,11.873,30.517Zm-.63-20.9c-.385.211-.49.735-.91.945v.175a17.391,17.391,0,0,0-1.645,2.309,26.089,26.089,0,0,0-2.975,6.02c-.105.7-.455,1.4-.49,2.065a3.811,3.811,0,0,0,1.365-.385,19.908,19.908,0,0,1,4.3-1.225c.07-.841.14-1.435.245-2.17,0-.05-.031-.03-.065-.009S11,17.4,11,17.322a1.257,1.257,0,0,0,.175-1.26,1.807,1.807,0,0,0,.211-1.4c.069-.07.175-.07.21-.175,0-.56.28-1.26.105-1.68a.929.929,0,0,0,.175-.315c-.105-.07-.105-.175-.105-.315.175-.139.211-.42.28-.665-.384-.769.281-1.994.07-3.01C11.838,8.922,11.383,9.1,11.243,9.622Zm57.89,20.51a14.388,14.388,0,0,1-1.82-.84c-.245-.315-.84-.491-.945-.806.315-.1.14-.035.245.105a6.958,6.958,0,0,0,2.765-1.61c.14,0,.07-.21.175-.245a1.893,1.893,0,0,0,.84-1.82c.035-.945-.454-1.89-.419-2.87.069-2.24.945-4.725,2.274-5.81.07-.07.211-.07.35-.175.315-.245.805-.245,1.575-.105a3.805,3.805,0,0,1,2.17,1.015c.035.28-.069.42-.035.7-.245.069-.349.35-.525.455-.175.07-.385.07-.525.14A5.375,5.375,0,0,0,74.173,19a7.085,7.085,0,0,0-1.26,1.925,2.815,2.815,0,0,1-.315,1.191c-.035.139.035.175.035.28-.28.8.07,2.24.21,3.325a8.557,8.557,0,0,0,.07.945c0,.105.105.176.105.28.035.385-.07.841-.07,1.225,0,.105.035.211.035.315a2.2,2.2,0,0,1-1.54,1.715,4.767,4.767,0,0,1-.839.067A8.752,8.752,0,0,1,69.133,30.132ZM25.162,21.99l.046-.013c.037.027.045.038.033.038A.324.324,0,0,1,25.162,21.99Zm96.212-6.758a.6.6,0,0,0-.476-.045c-.84-.561-.35-2.345-.491-3.325a3.533,3.533,0,0,0,1.925.385c.315.455,1.191.63,1.365,1.155.105.42-.315.385-.56.595-.28.211-.805,1.225-1.3,1.3a.477.477,0,0,1-.137.02A.958.958,0,0,1,121.374,15.233Zm27.634-2.258c0-1.257,1.187-1.66,2.75-1.66,1.78,0,4.1,1.408,4.1,2.515,0,.7-1.025,1.257-3.02,1.257C150.41,15.087,149.008,14.181,149.008,12.974Z"/>
</svg>
