<svg xmlns="http://www.w3.org/2000/svg" width="194.765" height="48" viewBox="0 0 194.765 48">
  <defs>
    <style>
      .cls-1 {
        font-size: 35px;
        font-family: SixHands-Brush, Six Hands;
      }
    </style>
  </defs>
  <g id="Group_2" data-name="Group 2" transform="translate(-51 -21)">
    <text id="ARTrospective" class="cls-1" transform="translate(52 55)"><tspan x="0" y="0">ARTrospective</tspan></text>
    <path id="path4" d="M0,12.974c0-1.257,1.187-1.659,2.751-1.659,1.78,0,4.1,1.408,4.1,2.514,0,.7-1.025,1.257-3.02,1.257C1.4,15.086,0,14.181,0,12.974ZM4.045,24.792c0-3.068,9.6-.05,9.6-5.079,0-2.112-4.045-2.766-4.045-4.274,0-1.911,7.659.2,7.659-3.168,0-2.112-3.721-2.464-3.721-5.28a1.253,1.253,0,0,1,1.24-1.358c3.614,0,1.618,6.688,7.065,6.688,2.049,0,3.128-1.408,3.128-3.57,0-2.565-1.079-3.42-1.079-6.336A2.294,2.294,0,0,1,26.212,0a2.491,2.491,0,0,1,2.427,2.565c0,3.369-1.618,3.47-1.618,6.487,0,4.526,2.157,5.632,6.148,5.632,2.265,0,3.4-4.023,5.771-4.023,1.888,0,2.643,1.106,2.643,2.263,0,2.766-8.036.855-8.036,7.191,0,7.543,11.218,3.168,11.218,8a1.794,1.794,0,0,1-1.888,1.961c-3.937,0-3.452-3.872-11.6-3.872-2.966,0-3.506,2.464-3.506,4.526,0,2.766,2.049,3.218,2.049,4.727,0,1.257-1.079,1.861-2.319,1.861-3.506,0,.324-9.706-6.58-9.706-7.065,0-4.315,11.616-10.733,11.616a2.03,2.03,0,0,1-2.265-2.112c0-5.129,7.659-4.978,7.659-10.309,0-1.961-1.672-2.565-3.074-2.565-2.751,0-4.746,1.71-6.526,1.71-1.133,0-1.942-.352-1.942-1.157Zm29.394,12.17a2.433,2.433,0,1,1,2.427,2.263A2.339,2.339,0,0,1,33.439,36.961Z" transform="translate(201 25.113)"/>
  </g>
</svg>
