<svg xmlns="http://www.w3.org/2000/svg" width="512" height="512" viewBox="0 0 512 512">
  <path id="pinterest-icon" d="M449.446,0A62.584,62.584,0,0,1,512,62.554V449.446A62.584,62.584,0,0,1,449.446,512H189.232c10.837-18.276,24.6-44.144,30.094-65.264,3.331-12.822,17.073-65.143,17.073-65.143,8.934,17.04,35.04,31.465,62.807,31.465,82.652,0,142.2-76.005,142.2-170.448,0-90.528-73.876-158.265-168.937-158.265-118.259,0-181.063,79.384-181.063,165.827,0,40.192,21.4,90.228,55.623,106.161,5.192,2.415,7.969,1.351,9.164-3.666.909-3.809,5.53-22.421,7.612-31.077a8.2,8.2,0,0,0-1.9-7.86C150.58,300,141.509,274.747,141.509,251.194c0-60.438,45.767-118.921,123.739-118.921,67.317,0,114.465,45.875,114.465,111.485,0,74.131-37.438,125.487-86.146,125.487-26.9,0-47.034-22.243-40.579-49.52,7.727-32.575,22.7-67.726,22.7-91.239,0-21.047-11.3-38.6-34.673-38.6-27.5,0-49.585,28.448-49.585,66.551,0,24.27,8.2,40.685,8.2,40.685s-27.155,114.826-32.132,136.211c-5.51,23.659-3.352,56.982-.956,78.664l.011,0H62.554A62.584,62.584,0,0,1,0,449.446V62.554A62.584,62.584,0,0,1,62.554,0H449.446Z" fill="#fff" fill-rule="evenodd"/>
</svg>
