<svg xmlns="http://www.w3.org/2000/svg" width="512" height="512" viewBox="0 0 512 512">
  <path id="rss-icon" d="M438.857,32H73.143A73.145,73.145,0,0,0,0,105.143V470.857A73.145,73.145,0,0,0,73.143,544H438.857A73.145,73.145,0,0,0,512,470.857V105.143A73.181,73.181,0,0,0,438.857,32ZM172.114,423.543a36.061,36.061,0,0,1-25.829,10.743,36.605,36.605,0,1,1,25.829-10.743Zm113.143,10.629c-.686-.914-1.257.114-2.857.114a27.441,27.441,0,0,1-27.337-25.646C252,346.171,197.829,292,135.314,287.886a27.419,27.419,0,0,1-25.589-29.143c.982-15.143,14.183-26.069,29.166-25.577,88.983,5.785,166.057,82.857,171.886,171.886A27.281,27.281,0,0,1,285.257,434.171Zm109.029-.914c-.343,1.029-.8,1.029-2.171,1.029A27.436,27.436,0,0,1,364.72,408C360.686,286.4,257.6,183.314,136,177.257c-15.086.343-26.891-12.343-26.263-27.543.64-15.086,13.577-27.2,28.549-26.286,149.371,6.25,276,132.914,281.257,281.257C421.143,420.914,409.486,433.6,394.286,433.257Z" transform="translate(0 -32)" fill="#fff"/>
</svg>
