<svg xmlns="http://www.w3.org/2000/svg" width="464.808" height="406.489" viewBox="0 0 464.808 406.489">
  <defs>
    <style>
      .cls-1 {
        opacity: 0.08;
      }

      .cls-2 {
        fill: #080808;
      }
    </style>
  </defs>
  <g id="layer1" class="cls-1" transform="translate(145.483 48.576)">
    <path id="path69" class="cls-2" d="M145.531,356.429c-2.267-2.646-6.255-15.005-5.318-16.48.8-1.266-1.77-13.8-4.78-23.266-.654-2.056-.537-4.432.278-5.634,1.277-1.886,1.52-1.676,2.6,2.255,1.728,6.265,2.412,9.509,5.617,26.646,1.582,8.458,3.251,15.967,3.708,16.687,1.153,1.814-.519,1.649-2.109-.208ZM82.113,296.6c0-4.342.555-8.1,1.232-8.355,1.2-.447.586,15.152-.625,15.883C82.386,304.326,82.113,300.939,82.113,296.6Zm49.779,7.028c-.526-.318-.957-2.015-.957-3.771a13.89,13.89,0,0,0-1.4-5.707c-1.8-3.229-2.831-11.615-1.428-11.615,1.264,0,2.187,2.872,4.283,13.326,1.512,7.542,1.424,8.926-.5,7.767Zm-204.86-18.542c0-.5,1.723-2.747,3.829-4.984s5.456-6.018,7.445-8.4c2.632-3.156,3.775-3.9,4.2-2.732.635,1.739-5.575,10.807-10.033,14.651C-70.336,286.037-72.968,286.746-72.968,285.082ZM123.95,272.129c-2.732-8.994-3.689-17.046-1.9-16.036,2.266,1.282,5.967,16.462,4.7,19.271C125.8,277.456,125.443,277.042,123.95,272.129Zm154.415-7.152c-3.023-.966-6.131-2.775-6.908-4.02s-4.592-5.048-8.479-8.451c-7.439-6.513-10.819-10.717-8.617-10.717,1.25,0,7.242,4.546,7.242,5.494,0,.253,3.56,3.313,7.912,6.8,5.646,4.525,8.821,6.342,11.086,6.342a4.788,4.788,0,0,1,4.574,2.388c2.042,3.485-.321,4.236-6.81,2.162Zm-197.3-10.333c-.144-5.8.335-11.166,1.065-11.919.858-.885,1.342,2.84,1.37,10.55.022,6.555-.455,11.919-1.065,11.919s-1.226-4.748-1.37-10.55Zm146.567,3.145c-1.336-2.1.528-2.481,2.311-.47,1.111,1.254,1.133,1.808.071,1.808a3.17,3.17,0,0,1-2.382-1.338ZM-44.25,251.663c0-1.8,8.635-11.607,10.216-11.607,1.372,0,.177,1.987-5.084,8.452C-42.97,253.242-44.25,254.029-44.25,251.663Zm158.91-7.851c-.526-.318-.957-1.956-.957-3.641,0-3.6,2.085-2.731,3.364,1.4.815,2.634-.2,3.574-2.407,2.239Zm9.79-3.818c-1.364-3.748-.054-4.018,1.8-.371.848,1.668,1.008,3.033.354,3.033s-1.623-1.2-2.156-2.662Zm-48.44,1.3a3.563,3.563,0,0,1-1.077-2.75c0-2.67-3.207-2.144-4.357.714-.844,2.1-.849,2.1-1.9-.364-.577-1.357-.45-2.917.282-3.467a10.347,10.347,0,0,0,2.382-4.035,10.364,10.364,0,0,1,2.443-4.08c.767-.575,1.058-1.374.647-1.775s-.1-1.3.689-1.988c.982-.861,1.168.933.587,5.676-.785,6.413-.688,6.772,1.29,4.768l2.139-2.167-.119,2.6c-.18,3.92-1.8,7.607-3.01,6.868Zm152.577-2.75c-1.7-1.788-3.707-3.836-4.452-4.551-2.548-2.446-5.366-6.5-4.769-6.863.814-.493.743-.558,8.186,7.513,3.627,3.933,6.041,7.151,5.364,7.151s-2.626-1.463-4.329-3.251Zm-110.992-4.551c-.413-.954-.166-1.734.551-1.734s1.3.78,1.3,1.734-.247,1.734-.55,1.734S118.008,234.942,117.595,233.988Zm125.832-1.734c-1.4-1.43-3.035-2.6-3.634-2.6s-2.165-1.268-3.479-2.817a81.644,81.644,0,0,0-8.606-7.774c-8.646-6.895-13.78-11.946-12.143-11.946.76,0,4.429,2.633,8.154,5.851s10.432,8.972,14.905,12.786c10.078,8.594,10.569,9.1,8.787,9.1-.792,0-2.585-1.17-3.984-2.6Zm-265.6-6.285c5.459-7.363,8.722-11.008,9.872-11.031,2.039-.04,1.061,1.77-4.683,8.666C-23.366,231.269-27.5,233.152-22.172,225.97Zm-73.707,3.112c-.064-1,10.87-9.83,12.174-9.83.377,0,.685.5.685,1.107,0,1.41-12.773,10.074-12.859,8.723ZM113.7,225.175c0-2.463.307-4.294.681-4.067,1.291.78,1.8,8.546.561,8.546-.683,0-1.243-2.015-1.243-4.479Zm-33.027,2.26c0-.743.657-1.106,1.459-.807s1.088.908.633,1.351c-1.231,1.2-2.093.978-2.093-.544Zm-153.912-8.207c1.616-2.637,14.632-11.246,17-11.246,2.053,0,8.231-3.538,10.556-6.046.667-.719,1.646-1.046,2.176-.726.9.544-4.048,5.263-10.738,10.239-2.31,1.718-3.178,1.922-4.19.982-.961-.893-2.749.018-7.236,3.684C-71.667,221.022-75.232,222.488-73.235,219.229Zm-72.248-3.4c0-2.7,2.175-4.584,5.642-4.891a33.135,33.135,0,0,0,7.233-2.557c2.834-1.3,5.6-2.1,6.138-1.777.97.586-8.894,6.579-10.836,6.584-.548,0-2.289,1.171-3.869,2.6C-144.768,219.032-145.483,219.039-145.483,215.828Zm198.508.312c-.524-.316-.011-1.676,1.144-3.022a8.865,8.865,0,0,0,2.1-4.686,12.368,12.368,0,0,1,2.257-5.461,25.884,25.884,0,0,0,3.231-8.353c.536-2.822,1.658-5.267,2.5-5.435.942-.189.489,2.591-1.189,7.3-1.491,4.181-3.26,9.425-3.931,11.653-1.373,4.559-4.665,8.876-6.1,8.007Zm-169.071-2.329c0-1.406,5.931-4.96,8.278-4.96a4.478,4.478,0,0,0,2.779-1.174c1.433-1.465,7.61-3.484,7.61-2.488,0,1.18-5.2,4.219-12.182,7.119C-113.853,214.09-116.046,214.6-116.046,213.81Zm227.073-1.06a57.266,57.266,0,0,1-1.122-6.068c-.58-3.9-.362-4.961.872-4.244,1,.583,1.441,2.955,1.122,6.068C111.611,211.318,111.218,213.228,111.027,212.751Zm-196.2-2.167a2.958,2.958,0,0,1,1.521-.867c.348,0,.633.39.633.867s-.684.867-1.521.867-1.121-.39-.633-.867Zm357.51-4.745c-6.172-3.726-7.913-5.657-5.1-5.657,1.991,0,9.725,4.13,13.114,7C285.206,211.3,279.909,210.41,272.336,205.839ZM95.149,207.478c.069-1.01.409-1.215.868-.524a1.173,1.173,0,0,1-.113,1.661c-.477.288-.817-.224-.754-1.138Zm-163.81-3.6c0-.5,1.271-1.826,2.824-2.952,2.146-1.555,2.836-1.714,2.872-.664.027.76-1.245,2.089-2.824,2.952S-68.661,204.377-68.661,203.879Zm68.925-.771A64.409,64.409,0,0,1,5.1,195.957c2.66-3.636,5.225-7.293,5.7-8.127a3.913,3.913,0,0,1,3.146-1.517c1.256,0,2.048.293,1.76.65s-3.4,4.256-6.905,8.662C3.321,202.5.264,205.183.264,203.108ZM73.5,200.76c0-1.271.538-2.312,1.2-2.312,1.4,0,1.235,3.156-.209,4.028-.543.328-.987-.445-.987-1.716Zm131.872-1.638c-4.738-3.839-10.067-9.48-9.358-9.908.684-.413,6.274,4.006,10.917,8.63C211.109,202.007,210.026,202.894,205.369,199.122ZM114.6,198.34c-1.294-3.906-1.1-8.56.351-8.56,1.329,0,3.018,4.93,3.044,8.885C118.017,201.906,115.709,201.685,114.6,198.34Zm77.675-.014c-1.407-1.492-2.295-2.871-1.973-3.065s1.935,1.029,3.586,2.718,2.539,3.068,1.973,3.065-2.18-1.226-3.586-2.718ZM-12.4,194.909c-1.281-1.238-1.251-1.5.13-1.185.98.227,3.385-1.153,5.344-3.066,3.144-3.071,5.756-4.427,5.756-2.988,0,.919-3.292,4.272-6.437,6.557-2.962,2.151-3.232,2.19-4.791.682ZM-95.584,193.7c-4.017-1.075-4.078-1.852-.239-3.092a5.947,5.947,0,0,1,5.71.519c2.575,1.407,2.523,3.527-.062,2.562a1.574,1.574,0,0,0-1.7.211c-.265.365-1.936.275-3.713-.2Zm342.829-3.487c-2.679-1.669-4.064-3.034-3.077-3.034,2.081,0,11.692,4.453,11.692,5.418C255.861,194.153,251.741,193.013,247.245,190.213Zm-128.458-.169a6.989,6.989,0,0,0-3-3.245c-1.371-.621-2.328-3.6-2.943-9.155-.5-4.529-1.459-8.865-2.128-9.635s-1.942-5.061-2.829-9.535-2.2-8.505-2.925-8.958-1.312-3.072-1.312-5.821c0-5.636-1.889-6.848-9.334-5.986-3.893.451-4.668,1.138-8.047,7.132-6.167,10.939-7,13.536-4.713,14.681,2.919,1.463,2.427,2.719-.823,2.1-2.6-.5-2.751-.222-1.977,3.725.537,2.735.258,4.48-.776,4.866-.887.331-1.613.189-1.613-.316,0-1.608-2.507-.986-3.288.816a2.971,2.971,0,0,1-2.436,1.734c-2,0-.63-4.657,2.166-7.355,1-.961,2.24-4.916,2.767-8.791a53.338,53.338,0,0,1,3.011-11.7c2.614-5.93,2.711-7.548.365-6.131-3.245,1.959-6.75,1.182-8.013-1.777a4.711,4.711,0,0,0-4.349-3.094c-1.73-.152-3.146.066-3.146.484s-.9,1.5-2,2.411c-1.627,1.343-2.4,1.451-4.138.578-1.806-.9-3.168-.075-8.756,5.337-3.639,3.525-9.936,10.263-13.993,14.974-7.954,9.236-9.344,10.481-10.753,9.63-.5-.3,1.137-2.749,3.646-5.432s4.344-5.273,4.079-5.754-2.921,1.794-5.9,5.057c-6.579,7.2-9.257,9.444-10.434,8.733-1.206-.728,11.413-14.591,15.131-16.622,1.63-.89,2.963-1.29,2.963-.887s1.251-.079,2.779-1.07c1.66-1.075,2.475-2.5,2.025-3.541-.767-1.77,4.736-8.647,9.513-11.888,3.645-2.473,5.986-5.458,4.667-5.95-.62-.231-2.637.91-4.483,2.535s-3.973,2.725-4.728,2.444.078-1.445,1.852-2.585,2.808-2.324,2.3-2.632-2.1.316-3.537,1.386c-2.246,1.674-2.852,1.769-4.351.679-1.4-1.015-1.17-1.705,1.138-3.476,3.761-2.886,3.664-3.325-1.38-6.242-5.894-3.409-15.965-3.757-23.89-.827-7.989,2.954-20.908,6.58-21.713,6.094-1.207-.729.67-1.786,6.306-3.554,3.027-.949,9.868-3.582,15.2-5.851S25.313,113.5,26.081,113.5c.784,0,1.018-1.138.534-2.6a3.488,3.488,0,0,1,.824-3.824c1.87-1.36-.25-2.751-2.763-1.813-2.986,1.114-4.518-.59-2.025-2.253,2.413-1.609,2.1-1.648-13.334-1.648-8.692,0-17.677-.39-19.967-.868-2.938-.612-7.438-.522-15.292.308-6.121.647-11.128.868-11.128.493,0-.845,1.925-1.182,17.126-3,6.655-.8,13.117-1.768,14.359-2.162,3.395-1.076,15.832-3.2,22.609-3.856,5.369-.522,9.046-2.5,6.973-3.751-.41-.248-7.164.044-15.008.647C-6.987,90.4-10.3,89.969-4.816,87.364c3.224-1.531,4.922-1.657,15.125-1.119C17,86.6,21.8,86.52,21.8,86.06c0-.892-9.155-2.61-18.34-3.441C-3.36,82-6.223,80.558-.623,80.558c1.974,0,4.024-.424,4.555-.942s2.16-.754,3.622-.523a6.627,6.627,0,0,0,4.241-.733c1.315-.956,2.727-.939,8.309.1,13.26,2.466,12.784,2.483,15.373-.538,1.4-1.639,1.832-3.015,1.037-3.329a10.623,10.623,0,0,1-3.058-2.485c-2.053-2.353-.447-2.531,5.651-.628,4.134,1.291,4.236,1.271,4.236-.8,0-1.168-1.525-3.226-3.388-4.573a40.094,40.094,0,0,1-5.869-5.371C30.3,56.282,22.057,49.451,13.991,44.087,2.548,36.478-5.744,30.281-4.482,30.282c1.866,0,8.458,3.734,10.3,5.83a12.244,12.244,0,0,0,4.635,2.881c2.861.924,2.876.89.55-1.253-4.359-4.016-1.292-4.487,3.309-.508C22.992,44.741,54.372,64.37,55.668,63.1a5,5,0,0,1,3.219-.556c1.563.156,3.341-.917,5.078-3.064l2.673-3.3-3.97-6.571C60.485,46,58.527,42.1,58.317,40.944c-.605-3.329,4.008-2.09,5.487,1.474a8.547,8.547,0,0,0,3.3,3.986c1.124.525,3.371,3.548,4.993,6.718,2.274,4.444,3.57,5.764,5.661,5.764a9.042,9.042,0,0,0,8.193-5.045c.822-1.962-1.32-23.52-2.681-26.987-.243-.619.278-1.286,1.157-1.482,1.683-.377,3.463,4.236,4.236,10.977a45.018,45.018,0,0,0,2.774,9.535c1.28,3.1,2.8,6.8,3.369,8.235,1.577,3.935,6.851,4.05,9.51.208,2.8-4.049,3.386-6.714,3.523-16.079.075-5.142.639-7.875,1.554-7.534,1.825.681,1.907,20.691.1,24.494-.824,1.734-.824,2.812,0,2.812.735,0,1.336-.39,1.336-.867s1.222-.867,2.716-.867c3.837,0,5.435-4.147,2.156-5.6-1.341-.592-1.979-1.526-1.417-2.075,1.523-1.487,3.725-1.206,3.725.475,0,3.316,2.759-.6,5.771-8.192,1.75-4.41,3.752-8.018,4.449-8.018,2.572,0,.965,5.053-6.138,19.3-3.9,7.833-4.219,10.17-1.368,10.17.61,0,3.318-2.329,6.018-5.175s5.319-5.187,5.819-5.2c2.356-.067,2.22,5.065-.223,8.426l-2.679,3.684H134.5a20.841,20.841,0,0,0,9.124-2.179,54.142,54.142,0,0,1,9.346-3.454c2.781-.7,5.48-1.689,6-2.195a66.587,66.587,0,0,1,8.355-4.438c4.077-1.935,13.669-7.183,21.315-11.663s14.615-8.145,15.487-8.145c2.216,0-.2,2.545-5.407,5.7a32,32,0,0,0-5.482,4.006c-.711.808-5.865,4.514-11.454,8.235-8.137,5.418-10.355,7.5-11.133,10.45-1.022,3.875.186,4.616,3.883,2.384a10.013,10.013,0,0,1,4.329-1.3c1.2,0,6.088-2.187,10.872-4.861,11.982-6.7,10.972-4.661-1.356,2.733-11.56,6.933-20.7,13.325-19.815,13.859.68.411,24.99-5.852,36.831-9.488,4.225-1.3,7.971-2.184,8.325-1.97,1.024.618-15.667,8.375-19.237,8.94-1.777.281-3.231.859-3.231,1.284s-.89.773-1.978.773a7.578,7.578,0,0,0-3.766,1.3c-1.51,1.1-1.217,1.3,1.881,1.3,2.41,0,3.982.6,4.582,1.736,1,1.893,2.883,1.884,21.842-.1,13.754-1.441,13.437-.531-.6,1.711-14.985,2.395-22.923,4.314-18.2,4.4a54.483,54.483,0,0,0,9.155-1.245c6.862-1.462,9.919-1.687,7.826-.577-1.718.911-10.207,2.713-29.157,6.19-8.178,1.5-14.448,2.982-13.934,3.292a60.368,60.368,0,0,0,7.689,2.156c5.21,1.228,11.845,1.67,29.012,1.934,12.241.188,20.8.142,19.026-.1-5.184-.715-3.888-2.354,1.36-1.721,10.9,1.316,19.46,1.582,20.43.635,1.435-1.4,6-1.2,8.621.39,3.167,1.912,2.807,2.792-.974,2.38a127.145,127.145,0,0,0-14.718.63c-6.318.54-17.446,1.1-24.73,1.239s-15.037.578-17.231.97a65.251,65.251,0,0,1-9.015.75c-4.473.033-4.982.271-4.631,2.166a4.047,4.047,0,0,0,2.154,2.8c1.56.6,13.329,1.115,17.805.781a3.83,3.83,0,0,1,2.6.764c.6.582-3.313.89-11.294.89-12.608,0-15.361.674-11.724,2.869,2.273,1.372,16.868,3.181,26.032,3.226a26.149,26.149,0,0,1,8.413,1.3c1.923.878,3.087.98,3.754.329,1.65-1.612,16.919,0,20.234,2.136l2.86,1.842-3.117.289a86.215,86.215,0,0,1-12.663-1.04c-5.251-.731-16.332-1.78-24.624-2.332s-18.954-1.541-23.693-2.2c-14.919-2.068-16.147-1.516-10.77,4.848,3.112,3.682,3.543,5.819,1.558,7.712-1.013.966-2.461,1.029-7.158.309-6.967-1.068-7.585-.332-1.535,1.826,3.859,1.376,4.251,1.88,3.453,4.447-.869,2.8-.2,3.314,19.517,15.143,11.229,6.737,20.175,12.392,19.881,12.568-.788.471-34.49-17.554-48.713-26.053-6.754-4.036-12.663-7.106-13.132-6.823s.786,1.563,2.787,2.845c5.135,3.288,17.6,14.926,17.6,16.433,0,1.008-6.15-2.961-8.081-5.216-1.124-1.312-2.673-2.386-3.443-2.386-2.15,0-1.659,2.258.755,3.467a4.835,4.835,0,0,1,2.154,4.041c0,3.472,4.208,8.855,10.731,13.729a51.745,51.745,0,0,1,7.175,6.5,30.806,30.806,0,0,0,5.488,4.984c1.625,1.073,2.357,1.938,1.627,1.923-2.013-.042-6.353-2.217-6.353-3.184,0-.469-1.292-1.56-2.872-2.423s-2.872-2.052-2.872-2.643-2.044-2.383-4.542-3.983-8.3-6.03-12.887-9.844c-13.911-11.559-15.177-12.208-13.538-6.935.747,2.4.482,3.034-1.276,3.034-1.22,0-2.219-.514-2.219-1.143a24.8,24.8,0,0,0-2.21-5.634c-3.982-8.094-8.978-4.884-10.072,6.471-.563,5.84-1.485,8.235-4.281,11.115-3.466,3.57-3.5,3.776-1.292,7.484a11.693,11.693,0,0,1,1.382,8.764c-.634,3.533-.289,5.652,1.207,7.4,2.872,3.353,4.358,8.57,2.624,9.216-.776.29-1.847-.519-2.378-1.8Zm30.2-53.812c-2.481-1.43-2.519-1.407-.875.528.946,1.114,2.114,1.787,2.6,1.5S150.417,137.055,148.989,136.232Zm9.162-5.471c-.882-.994-1.966-1.589-2.409-1.321s.011,1.081,1.01,1.808c2.582,1.878,3.28,1.635,1.4-.487ZM20.367,80.558c-2.812-1.1-4.713-1.1-3.59,0a5.743,5.743,0,0,0,3.316.854c2.093-.011,2.13-.129.274-.854ZM179.123,77.5c2.7-1.284,2.677-1.318-.69-1.084-1.913.133-3.743.73-4.069,1.326-.8,1.474,1.383,1.363,4.759-.242Zm-14.385-2.2c1.545-1.51-.215-1.829-2.184-.4-1.133.824-1.242,1.321-.289,1.321a4.059,4.059,0,0,0,2.474-.925Zm2.813-10.344c.488-.477.2-.867-.633-.867s-1.521.39-1.521.867.285.867.633.867A2.958,2.958,0,0,0,167.551,64.955ZM-13.377,184.579a2.958,2.958,0,0,1,1.521-.867c.348,0,.633.39.633.867s-.684.867-1.521.867S-13.865,185.055-13.377,184.579Zm237.647-9.535c-4.4-2.657-3.41-3.76,1.436-1.6,2.369,1.057,4.308,2.239,4.308,2.626C230.014,177.324,227.217,176.822,224.27,175.043Zm-232.245-3.2c1.335-.806,2.909-1.175,3.5-.82s.119,1.009-1.043,1.452C-9.017,173.811-10.571,173.411-7.975,171.844Zm276.041-7.067c-8.55-2.974-10.769-4.04-10.769-5.17,0-.793,1-.963,3.231-.547,5.182.967,17.421,5.276,18.009,6.34C279.345,166.864,272.975,166.485,268.066,164.777ZM2.778,157.8c-2.748-1.682-2.016-2.693,1.949-2.693,3.161,0,4.436,1.147,3.286,2.956C6.917,159.786,5.944,159.738,2.778,157.8Zm131.986-1.537a2.012,2.012,0,0,1-.957-1.474c0-.543.669-.492,1.7.13.935.564,1.365,1.227.957,1.474A1.845,1.845,0,0,1,134.764,156.262Zm94.173-6.863c-6.908-3.287-5.664-3.959,2.5-1.35,3.942,1.259,7.173,2.582,7.18,2.94C238.645,152.378,233.383,151.515,228.937,149.4Zm-295.242-.962c-1.454-.878,2.074-2.866,5.085-2.866,1.529,0,2.384.388,1.9.862C-60.642,147.723-65.283,149.055-66.305,148.437Zm21.466-7.634c.716-1.722.353-2.175-1.768-2.208-1.468-.022.562-.79,4.511-1.706s8.949-2.282,11.11-3.036c3.629-1.266,3.86-1.26,3.013.073-.8,1.253-.494,1.307,2.295.406,4.619-1.492,5.73-.213,1.509,1.737-3.852,1.78-19.189,6.9-20.669,6.9-.5,0-.5-.975,0-2.167Zm9.205-3.467c1.03-.749,1.17-1.3.329-1.3a3.052,3.052,0,0,0-2.285,1.3c-.455.715-.6,1.3-.329,1.3a7.921,7.921,0,0,0,2.285-1.3Zm235.083.794c-3.78-1.188-6.475-2.547-5.989-3.022.869-.848,9.12,1.649,13.528,4.1C210.176,140.972,207.1,140.535,199.449,138.13ZM-21.275,130c0-.46,1.454-1.3,3.231-1.86,3.214-1.018,3.216-1.014.5.836-3.039,2.066-3.726,2.255-3.726,1.023Zm198.117-.494c-2.494-1.814-.414-2.783,2.368-1.1,1.343.811,1.686,1.576.846,1.889A4.058,4.058,0,0,1,176.842,129.5Zm107.019.437c-1.58-.427-5.618-1.2-8.975-1.708-4.793-.732-6.1-1.329-6.1-2.783V123.6l3.231,1.738c3.376,1.816,12.8,3.766,18.2,3.766,1.734,0,2.75.39,2.262.867-1.068,1.044-4.7,1.032-8.616-.027Zm-105.938-7.61c-2.151-.788-3.911-1.72-3.911-2.071,0-.76,3.977.035,7.644,1.527C185.73,123.444,182.32,123.941,177.923,122.33Zm83.232-2.864c-2.646-1.639-3.322-2.5-1.96-2.5,1.906,0,7.565,4.147,6.473,4.744C265.408,121.851,263.377,120.842,261.155,119.467ZM-87.328,108.611c0-.822,1.965-1.181,6.462-1.181,6.092,0,9.36,1.226,3.949,1.481-1.382.065-4.29.29-6.462.5C-86.064,109.67-87.328,109.414-87.328,108.611Zm24.411-2.881c0-1.1,11.1-2.88,13.174-2.107,2.6.971-3.038,2.94-8.423,2.94C-60.779,106.563-62.917,106.188-62.917,105.73Zm10.4-27.943c-8.877-.977-8.865-2.449.016-1.86,9.813.651,12.738,1.16,11.82,2.056-.977.955-1.453.947-11.836-.2Zm16.17.171c-.516-.5.914-.867,3.42-.867,2.369,0,4.707.39,5.2.867.516.5-.914.867-3.42.867C-33.526,78.824-35.864,78.434-36.352,77.957Zm-49.54-3.467a28.246,28.246,0,0,0-7.454-.854c-5.231-.013-7.805-1.033-6.3-2.5.93-.909,15.171.535,17.692,1.794.979.489,1.425,1.234.992,1.657-1,.979-2.228.954-4.925-.1ZM218.527,61.244c0-.611,1.777-1.587,3.949-2.169s7.5-2.4,11.846-4.042,9.028-3.409,10.411-3.929c1.9-.717,2.5-.676,2.472.168-.033.949-8.239,4.5-18.887,8.165a29.206,29.206,0,0,0-4.455,1.95c-2.169,1.309-5.336,1.224-5.336-.143ZM172.015,46.037c-.506-.495-.221-1.161.634-1.48,2.134-.8,2.889-.163,1.465,1.228-.763.745-1.5.834-2.1.252Zm-31.029-.7c0-1.112,7.389-12.865,8.677-13.8,1.857-1.351,5.873-8.131,6.525-11.017a17.213,17.213,0,0,1,3.323-5.634c8.909-10.38,11.569-13.758,11.6-14.727.016-.6.73-1.084,1.582-1.084,2.78,0-.162,5.351-7.443,13.543-3.867,4.35-7.03,8.544-7.03,9.32,0,3.733-13.265,23.946-15.715,23.946C141.668,45.884,140.986,45.639,140.986,45.339Zm14.964-1.657c1.784-4.292,6.783-11.642,8.3-12.209,2.428-.906.168,4.844-3.909,9.945C156.517,46.206,154.459,47.267,155.95,43.682Zm123.666-.338c-1.044-1.02,1.769-2.267,9.8-4.345,12.8-3.311,14.5-1.125,1.871,2.4C282.716,43.8,280.462,44.171,279.616,43.344Zm-99.859-3.37c0-1.048,2.724-2.269,3.72-1.668.361.218-.328.89-1.531,1.493-1.365.684-2.189.749-2.189.175ZM133.209,38.2c-.422-.412.467-2.291,1.976-4.176a31.405,31.405,0,0,0,3.713-5.761c.828-1.991,3.524-4.167,3.524-2.844,0,1.28-4.319,10.189-5.689,11.734-1.754,1.978-2.38,2.164-3.524,1.046ZM55.233,36.132a28.227,28.227,0,0,1-3.923-4.984c-1.4-2.145-2.86-4.388-3.253-4.984S48,25.08,48.8,25.08c1.762,0,10.342,8.979,10.342,10.822,0,1.593-2.012,1.711-3.9.23Zm255.852-1.575c-.52-.508-.638-1.11-.262-1.338s1.067.189,1.535.925C313.329,35.672,312.5,35.941,311.085,34.558Zm-98.3-6.725c0-1.1,27.384-16.849,28.313-16.288.787.475-11.895,9.689-20.106,14.608-3.827,2.293-8.207,3.189-8.207,1.68Zm-232.4-8.759c-8.148-5.833-7.512-6.548,1.211-1.361,3.949,2.348,7.18,4.576,7.18,4.952C-11.223,24.271-14.034,23.069-19.614,19.074Zm168.55.661a9.3,9.3,0,0,1,2.317-3.684c.725-.517,2.245-1.719,3.378-2.673l2.059-1.734.049,1.734c.058,2.024-5.859,9.1-7.609,9.1-.656,0-.744-1.235-.195-2.745ZM42.01,17.861a3.831,3.831,0,0,1-1.539-3c0-1.137-2.262-4.839-5.026-8.226C30.494.572,29.379-1.806,31.5-1.777c.979.013,4.306,4.417,9.01,11.926,1.419,2.265,2.358,2.728,4.641,2.291,2.994-.574,5.323.779,5.342,3.1.016,1.788-6.435,3.55-8.479,2.316Zm62.69-6.306c-.958-.578.011-15.576,1.239-19.233.368-1.092,1.284-1.756,2.036-1.476.814.3,1.028,4.262.529,9.787-.818,9.042-1.877,12.084-3.8,10.921Zm138.237-1.236c0-1.173,14-9.509,15.972-9.509,1.532,0-.178,1.647-6.034,5.814-4.328,3.08-9.939,5.166-9.939,3.7ZM-34.916,7.744c-1.438-.959-2.292-1.939-1.9-2.178s1.895.352,3.333,1.311,2.292,1.939,1.9,2.178S-33.478,8.7-34.916,7.744ZM158.571,6.66c.364-.6,2.128-3.814,3.921-7.151,3.768-7.015,6.4-9.355,5.355-4.768-.963,4.239-6.659,13-8.451,13C158.579,7.744,158.208,7.256,158.571,6.66Zm-8.97-.978a11.7,11.7,0,0,1,2-4.117c1.1-1.608,3.027-6.556,4.28-11s2.652-8.439,3.109-8.885c1.854-1.811,3.41-.635,2.656,2.006-2.118,7.416-6.219,18.666-7.583,20.8C152.478,6.981,149.6,7.747,149.6,5.682ZM-56.144-8.866c-3.778-3.4-6.643-6.6-6.367-7.1C-61.889-17.09-47.121-5.446-47.121-3.83-47.121-1.514-49.389-2.779-56.144-8.866ZM178.32-6.155c0-1.6,7.186-9.506,8.64-9.506,1.912,0,1.914,0-2.283,5.53C181.332-5.721,178.32-3.837,178.32-6.155Zm91.9-.808c0-.46,1.39-1.286,3.09-1.835,2.668-.862,2.962-.8,2.154.474a7.222,7.222,0,0,0-.936,1.835c0,.2-.969.363-2.154.363s-2.154-.376-2.154-.836Zm12.923-8.072c0-1.553,9.849-7.973,11.085-7.226,1.064.642-7.1,7.676-9.46,8.151C283.875-13.93,283.144-14.346,283.144-15.034ZM303.7-27.466a1.357,1.357,0,0,1,.848-2.015c.947-.353,1.525-1.156,1.286-1.783s1.375-1.762,3.588-2.521c3.734-1.281,4.126-1.27,5.473.155a3.036,3.036,0,0,0,2.8,1.032c3.552-1.325.779,1.385-3.319,3.244-6.615,3-9.628,3.534-10.674,1.887ZM105.96-33.574c-1.144-2.173.275-6.358,2.155-6.358,1.545,0,1.517,4.09-.043,6.5-1.1,1.7-1.144,1.693-2.111-.143ZM10.316-39.066c-1.733-.676-1.506-.843,1.162-.854,1.849-.007,2.923.37,2.428.854C12.839-38.023,12.988-38.023,10.316-39.066Zm162.362-1.9a7.773,7.773,0,0,1,1.335-2.868c1.1-1.548,1.245-1.484,1.335.6.055,1.283-.545,2.574-1.335,2.868S172.622-40.341,172.678-40.965ZM5.53-44.845a2.97,2.97,0,0,1-.912-2.384c.043-1.774.082-1.776,2.154-.123,1.16.925,2.108,2,2.108,2.384C8.88-44.12,6.854-44.045,5.53-44.845Z" transform="translate(0)"/>
  </g>
</svg>
