<svg xmlns="http://www.w3.org/2000/svg" width="512" height="512" viewBox="0 0 512 512">
  <path id="tumblr-icon" d="M449.446,0A62.584,62.584,0,0,1,512,62.554V449.446A62.584,62.584,0,0,1,449.446,512H62.554A62.584,62.584,0,0,1,0,449.446V62.554A62.584,62.584,0,0,1,62.554,0H449.446ZM282.32,86H229.263c-2.455,38.107-23.833,82.11-74.921,95.39v54.573h46.439V336.752c0,62.937,38.074,89.248,89.16,89.248H346.68V359.126H316.712c-21.157-.026-34.392-9.131-34.392-35.4V235.963h61.906V172.539H282.32V86Z" fill="#fff" fill-rule="evenodd"/>
</svg>
